<?xml version="1.0" encoding="utf-8"?>
<!-- Generator: Adobe Illustrator 16.2.1, SVG Export Plug-In . SVG Version: 6.00 Build 0)  -->
<!DOCTYPE svg PUBLIC "-//W3C//DTD SVG 1.1//EN" "http://www.w3.org/Graphics/SVG/1.1/DTD/svg11.dtd">
<svg version="1.1" id="Layer_1" xmlns="http://www.w3.org/2000/svg" xmlns:xlink="http://www.w3.org/1999/xlink" x="0px" y="0px"
	 width="268px" height="255px" viewBox="0 0 268 255" enable-background="new 0 0 268 255" xml:space="preserve">
<g id="atom" display="none">
	<g display="inline">
		<g>
			<circle fill="none" stroke="#000000" stroke-width="15" stroke-miterlimit="10" cx="134.2" cy="127.6" r="115.1"/>
			<circle fill="#ABABAB" cx="134.2" cy="127.6" r="66.3"/>
		</g>
		<path fill="#ABABAB" d="M253,56.3c0,15.6-12.6,28.2-28.2,28.2c-15.6,0-28.2-12.6-28.2-28.2c0-15.6,12.601-28.2,28.2-28.2
			C240.3,28.1,253,40.7,253,56.3z"/>
	</g>
</g>
<g id="Layer_2" display="none">
</g>
<g id="Layer_4" display="none">
</g>
<g id="Layer_3" display="none">
	<g display="inline">
		<g>
			<circle fill="none" stroke="#000000" stroke-width="15" stroke-miterlimit="10" cx="68.6" cy="183.9" r="58.2"/>
			<circle fill="#ABABAB" cx="68.6" cy="183.9" r="33.5"/>
		</g>
		<g>
			<circle fill="none" stroke="#000000" stroke-width="15" stroke-miterlimit="10" cx="134.1" cy="70.9" r="58.2"/>
			<circle fill="#ABABAB" cx="134.1" cy="70.9" r="33.5"/>
		</g>
		<g>
			<circle fill="none" stroke="#000000" stroke-width="15" stroke-miterlimit="10" cx="199.9" cy="183.9" r="58.2"/>
			<circle fill="#ABABAB" cx="199.9" cy="183.9" r="33.5"/>
		</g>
		<circle fill="#ABABAB" cx="97.6" cy="138.1" r="14.3"/>
		<circle fill="#ABABAB" cx="126" cy="184.9" r="14.3"/>
		<circle fill="#ABABAB" cx="141.6" cy="184.9" r="14.3"/>
		<circle fill="#ABABAB" cx="172.6" cy="137.5" r="14.3"/>
		<circle fill="#ABABAB" cx="105.7" cy="119.8" r="14.3"/>
		<circle fill="#ABABAB" cx="166.4" cy="120.8" r="14.3"/>
	</g>
</g>
<g id="organism" display="none">
	<g display="inline">
		<circle fill="none" stroke="#000000" stroke-width="11" stroke-miterlimit="10" cx="40.6" cy="67.2" r="29.3"/>
		<circle fill="#ABABAB" cx="40.6" cy="67.2" r="16.9"/>
		<circle fill="none" stroke="#000000" stroke-width="11" stroke-miterlimit="10" cx="103.5" cy="67.2" r="29.3"/>
		<circle fill="#ABABAB" cx="103.5" cy="67.2" r="16.9"/>
		<circle fill="none" stroke="#000000" stroke-width="11" stroke-miterlimit="10" cx="166.5" cy="67.2" r="29.3"/>
		<circle fill="#ABABAB" cx="166.5" cy="67.2" r="16.9"/>
		<circle fill="none" stroke="#000000" stroke-width="11" stroke-miterlimit="10" cx="230.2" cy="67.2" r="29.3"/>
		<circle fill="#ABABAB" cx="230.2" cy="67.2" r="16.9"/>
		<circle fill="none" stroke="#000000" stroke-width="11" stroke-miterlimit="10" cx="40.6" cy="130.2" r="29.3"/>
		<circle fill="#ABABAB" cx="40.6" cy="130.2" r="16.9"/>
		<circle fill="none" stroke="#000000" stroke-width="11" stroke-miterlimit="10" cx="103.5" cy="130.2" r="29.3"/>
		<circle fill="#ABABAB" cx="103.5" cy="130.2" r="16.9"/>
		<circle fill="none" stroke="#000000" stroke-width="11" stroke-miterlimit="10" cx="166.5" cy="130.2" r="29.3"/>
		<circle fill="#ABABAB" cx="166.5" cy="130.2" r="16.9"/>
		<circle fill="none" stroke="#000000" stroke-width="11" stroke-miterlimit="10" cx="230.2" cy="130.2" r="29.3"/>
		<circle fill="#ABABAB" cx="230.2" cy="130.2" r="16.9"/>
		<circle fill="none" stroke="#000000" stroke-width="11" stroke-miterlimit="10" cx="40.6" cy="193.1" r="29.3"/>
		<circle fill="#ABABAB" cx="40.6" cy="193.1" r="16.9"/>
		<circle fill="none" stroke="#000000" stroke-width="11" stroke-miterlimit="10" cx="103.5" cy="193.1" r="29.3"/>
		<circle fill="#ABABAB" cx="103.5" cy="193.1" r="16.9"/>
		<circle fill="none" stroke="#000000" stroke-width="11" stroke-miterlimit="10" cx="166.5" cy="193.1" r="29.3"/>
		<circle fill="#ABABAB" cx="166.5" cy="193.1" r="16.9"/>
		<circle fill="none" stroke="#000000" stroke-width="11" stroke-miterlimit="10" cx="230.2" cy="193.1" r="29.3"/>
		<circle fill="#ABABAB" cx="230.2" cy="193.1" r="16.9"/>
		<circle fill="#ABABAB" cx="71.7" cy="67.2" r="8.1"/>
		<circle fill="#ABABAB" cx="40.6" cy="98.8" r="8.1"/>
		<circle fill="#ABABAB" cx="105" cy="98.8" r="8.1"/>
		<circle fill="#ABABAB" cx="167.2" cy="98.8" r="8.1"/>
		<circle fill="#ABABAB" cx="230.2" cy="98.8" r="8.1"/>
		<circle fill="#ABABAB" cx="40.6" cy="161.7" r="8.1"/>
		<circle fill="#ABABAB" cx="105" cy="161.7" r="8.1"/>
		<circle fill="#ABABAB" cx="167.2" cy="161.7" r="8.1"/>
		<circle fill="#ABABAB" cx="230.2" cy="161.7" r="8.1"/>
		<circle fill="#ABABAB" cx="134.6" cy="67.2" r="8.1"/>
		<circle fill="#ABABAB" cx="198.3" cy="67.2" r="8.1"/>
		<circle fill="#ABABAB" cx="71.7" cy="128.7" r="8.1"/>
		<circle fill="#ABABAB" cx="134.6" cy="128.7" r="8.1"/>
		<circle fill="#ABABAB" cx="198.3" cy="128.7" r="8.1"/>
		<circle fill="#ABABAB" cx="71.7" cy="191.6" r="8.1"/>
		<circle fill="#ABABAB" cx="134.6" cy="191.6" r="8.1"/>
		<circle fill="#ABABAB" cx="198.3" cy="191.6" r="8.1"/>
	</g>
</g>
<g id="template" display="none">
	<g display="inline">
		<g>
			<g>
				<polyline fill="none" stroke="#000000" stroke-width="9" stroke-miterlimit="10" points="225.4,10 225.4,4 219.4,4 				"/>
				
					<line fill="none" stroke="#000000" stroke-width="9" stroke-miterlimit="10" stroke-dasharray="11.5716,11.5716" x1="207.8" y1="4" x2="74.8" y2="4"/>
				<polyline fill="none" stroke="#000000" stroke-width="9" stroke-miterlimit="10" points="69,4 63,4 63,10 				"/>
				
					<line fill="none" stroke="#000000" stroke-width="9" stroke-miterlimit="10" stroke-dasharray="6.3774,6.3774" x1="63" y1="16.4" x2="63" y2="25.9"/>
				<polyline fill="none" stroke="#000000" stroke-width="9" stroke-miterlimit="10" points="63,29.1 63,35.1 69,35.1 				"/>
				
					<line fill="none" stroke="#000000" stroke-width="9" stroke-miterlimit="10" stroke-dasharray="13.105,13.105" x1="82.1" y1="35.1" x2="180.4" y2="35.1"/>
				<polyline fill="none" stroke="#000000" stroke-width="9" stroke-miterlimit="10" points="186.9,35.1 192.9,35.1 192.9,41.1 				
					"/>
				
					<line fill="none" stroke="#000000" stroke-width="9" stroke-miterlimit="10" stroke-dasharray="11.3823,11.3823" x1="192.9" y1="52.5" x2="192.9" y2="206.2"/>
				<polyline fill="none" stroke="#000000" stroke-width="9" stroke-miterlimit="10" points="192.9,211.9 192.9,217.9 198.9,217.9 
									"/>
				
					<line fill="none" stroke="#000000" stroke-width="9" stroke-miterlimit="10" stroke-dasharray="6.8286,6.8286" x1="205.8" y1="217.9" x2="216" y2="217.9"/>
				<polyline fill="none" stroke="#000000" stroke-width="9" stroke-miterlimit="10" points="219.4,217.9 225.4,217.9 225.4,211.9 
									"/>
				
					<line fill="none" stroke="#000000" stroke-width="9" stroke-miterlimit="10" stroke-dasharray="11.8745,11.8745" x1="225.4" y1="200" x2="225.4" y2="15.9"/>
			</g>
		</g>
		<g>
			<g>
				<polyline fill="none" stroke="#000000" stroke-width="9" stroke-miterlimit="10" points="63,39.4 63,35.1 57,35.1 				"/>
				
					<line fill="none" stroke="#000000" stroke-width="9" stroke-miterlimit="10" stroke-dasharray="6.8288,6.8288" x1="50.2" y1="35.1" x2="39.9" y2="35.1"/>
				<polyline fill="none" stroke="#000000" stroke-width="9" stroke-miterlimit="10" points="36.5,35.1 30.5,35.1 30.5,41.1 				"/>
				
					<line fill="none" stroke="#000000" stroke-width="9" stroke-miterlimit="10" stroke-dasharray="11.8746,11.8746" x1="30.5" y1="53" x2="30.5" y2="237.1"/>
				<polyline fill="none" stroke="#000000" stroke-width="9" stroke-miterlimit="10" points="30.5,243 30.5,249 36.5,249 				"/>
				
					<line fill="none" stroke="#000000" stroke-width="9" stroke-miterlimit="10" stroke-dasharray="11.5716,11.5716" x1="48.1" y1="249" x2="181.1" y2="249"/>
				<polyline fill="none" stroke="#000000" stroke-width="9" stroke-miterlimit="10" points="186.9,249 192.9,249 192.9,243 				"/>
				
					<line fill="none" stroke="#000000" stroke-width="9" stroke-miterlimit="10" stroke-dasharray="6.3776,6.3776" x1="192.9" y1="236.6" x2="192.9" y2="227.1"/>
				<polyline fill="none" stroke="#000000" stroke-width="9" stroke-miterlimit="10" points="192.9,223.9 192.9,217.9 189.5,217.9 
									"/>
			</g>
		</g>
	</g>
</g>
<g id="page">
	<g>
		<polygon fill="none" stroke="#000000" stroke-width="8" stroke-miterlimit="10" points="224.3,5 56.5,5 56.5,29.5 152.3,29.5 
			199.9,75.6 199.9,226 224.3,226 		"/>
		<polyline fill="none" stroke="#000000" stroke-width="8" stroke-miterlimit="10" points="153,29.5 32,29.5 32,250.5 199.9,250.5 
			199.9,81.9 		"/>
		<polygon fill="none" stroke="#000000" stroke-width="8" stroke-miterlimit="10" points="154.806,35.926 154.923,76 
			194.524,76.196 		"/>
	</g>
</g>
</svg>
