<?xml version="1.0" encoding="utf-8"?>
<!-- Generator: Adobe Illustrator 19.2.1, SVG Export Plug-In . SVG Version: 6.00 Build 0)  -->
<!DOCTYPE svg PUBLIC "-//W3C//DTD SVG 1.1//EN" "http://www.w3.org/Graphics/SVG/1.1/DTD/svg11.dtd">
<svg version="1.1" id="Layer_1" xmlns="http://www.w3.org/2000/svg" xmlns:xlink="http://www.w3.org/1999/xlink" x="0px" y="0px"
	 width="268px" height="255px" viewBox="0 0 268 255" style="enable-background:new 0 0 268 255;" xml:space="preserve">
<style type="text/css">
	.st0{fill:none;stroke:#FFFFFF;stroke-width:15;stroke-miterlimit:10;}
	.st1{fill:#ABABAB;}
	.st2{display:none;}
	.st3{display:inline;}
	.st4{fill:none;stroke:#000000;stroke-width:15;stroke-miterlimit:10;}
</style>
<g id="atom">
	<g>
		<g>
			<circle class="st0" cx="134.2" cy="127.6" r="115.1"/>
			<circle class="st1" cx="134.2" cy="127.6" r="66.3"/>
		</g>
		<path class="st1" d="M253,56.3c0,15.6-12.6,28.2-28.2,28.2s-28.2-12.6-28.2-28.2s12.6-28.2,28.2-28.2
			C240.3,28.1,253,40.7,253,56.3z"/>
	</g>
</g>
<g id="Layer_2" class="st2">
</g>
<g id="Layer_4" class="st2">
</g>
<g id="Layer_3" class="st2">
	<g class="st3">
		<g>
			<circle class="st4" cx="68.6" cy="183.9" r="58.2"/>
			<circle class="st1" cx="68.6" cy="183.9" r="33.5"/>
		</g>
		<g>
			<circle class="st4" cx="134.1" cy="70.9" r="58.2"/>
			<circle class="st1" cx="134.1" cy="70.9" r="33.5"/>
		</g>
		<g>
			<circle class="st4" cx="199.9" cy="183.9" r="58.2"/>
			<circle class="st1" cx="199.9" cy="183.9" r="33.5"/>
		</g>
		<circle class="st1" cx="97.6" cy="138.1" r="14.3"/>
		<circle class="st1" cx="126" cy="184.9" r="14.3"/>
		<circle class="st1" cx="141.6" cy="184.9" r="14.3"/>
		<circle class="st1" cx="172.6" cy="137.5" r="14.3"/>
		<circle class="st1" cx="105.7" cy="119.8" r="14.3"/>
		<circle class="st1" cx="166.4" cy="120.8" r="14.3"/>
	</g>
</g>
</svg>
