<?xml version="1.0" encoding="utf-8"?>
<!-- Generator: Adobe Illustrator 16.2.1, SVG Export Plug-In . SVG Version: 6.00 Build 0)  -->
<!DOCTYPE svg PUBLIC "-//W3C//DTD SVG 1.1//EN" "http://www.w3.org/Graphics/SVG/1.1/DTD/svg11.dtd">
<svg version="1.1" xmlns="http://www.w3.org/2000/svg" xmlns:xlink="http://www.w3.org/1999/xlink" x="0px" y="0px" width="268px"
	 height="255px" viewBox="0 0 268 255" style="enable-background:new 0 0 268 255;" xml:space="preserve">
<style type="text/css">
<![CDATA[
	.st0{fill:#ABABAB;}
	.st1{fill:none;stroke:#000000;stroke-width:11;stroke-miterlimit:10;}
	.st2{fill:none;stroke:#000000;stroke-width:15;stroke-miterlimit:10;}
	.st3{display:inline;}
	.st4{display:none;}
]]>
</style>
<g id="atom" class="st4">
	<g class="st3">
		<g>
			<circle class="st2" cx="134.2" cy="127.6" r="115.1"/>
			<circle class="st0" cx="134.2" cy="127.6" r="66.3"/>
		</g>
		<path class="st0" d="M253,56.3c0,15.6-12.6,28.2-28.2,28.2c-15.6,0-28.2-12.6-28.2-28.2c0-15.6,12.6-28.2,28.2-28.2
			C240.3,28.1,253,40.7,253,56.3z"/>
	</g>
</g>
<g id="Layer_2" class="st4">
</g>
<g id="Layer_4" class="st4">
</g>
<g id="Layer_3" class="st4">
	<g class="st3">
		<g>
			<circle class="st2" cx="68.6" cy="183.9" r="58.2"/>
			<circle class="st0" cx="68.6" cy="183.9" r="33.5"/>
		</g>
		<g>
			<circle class="st2" cx="134.1" cy="70.9" r="58.2"/>
			<circle class="st0" cx="134.1" cy="70.9" r="33.5"/>
		</g>
		<g>
			<circle class="st2" cx="199.9" cy="183.9" r="58.2"/>
			<circle class="st0" cx="199.9" cy="183.9" r="33.5"/>
		</g>
		<circle class="st0" cx="97.6" cy="138.1" r="14.3"/>
		<circle class="st0" cx="126" cy="184.9" r="14.3"/>
		<circle class="st0" cx="141.6" cy="184.9" r="14.3"/>
		<circle class="st0" cx="172.6" cy="137.5" r="14.3"/>
		<circle class="st0" cx="105.7" cy="119.8" r="14.3"/>
		<circle class="st0" cx="166.4" cy="120.8" r="14.3"/>
	</g>
</g>
<g id="Layer_5">
	<g>
		<circle class="st1" cx="40.6" cy="67.2" r="29.3"/>
		<circle class="st0" cx="40.6" cy="67.2" r="16.9"/>
		<circle class="st1" cx="103.5" cy="67.2" r="29.3"/>
		<circle class="st0" cx="103.5" cy="67.2" r="16.9"/>
		<circle class="st1" cx="166.5" cy="67.2" r="29.3"/>
		<circle class="st0" cx="166.5" cy="67.2" r="16.9"/>
		<circle class="st1" cx="230.2" cy="67.2" r="29.3"/>
		<circle class="st0" cx="230.2" cy="67.2" r="16.9"/>
		<circle class="st1" cx="40.6" cy="130.2" r="29.3"/>
		<circle class="st0" cx="40.6" cy="130.2" r="16.9"/>
		<circle class="st1" cx="103.5" cy="130.2" r="29.3"/>
		<circle class="st0" cx="103.5" cy="130.2" r="16.9"/>
		<circle class="st1" cx="166.5" cy="130.2" r="29.3"/>
		<circle class="st0" cx="166.5" cy="130.2" r="16.9"/>
		<circle class="st1" cx="230.2" cy="130.2" r="29.3"/>
		<circle class="st0" cx="230.2" cy="130.2" r="16.9"/>
		<circle class="st1" cx="40.6" cy="193.1" r="29.3"/>
		<circle class="st0" cx="40.6" cy="193.1" r="16.9"/>
		<circle class="st1" cx="103.5" cy="193.1" r="29.3"/>
		<circle class="st0" cx="103.5" cy="193.1" r="16.9"/>
		<circle class="st1" cx="166.5" cy="193.1" r="29.3"/>
		<circle class="st0" cx="166.5" cy="193.1" r="16.9"/>
		<circle class="st1" cx="230.2" cy="193.1" r="29.3"/>
		<circle class="st0" cx="230.2" cy="193.1" r="16.9"/>
		<circle class="st0" cx="71.7" cy="67.2" r="8.1"/>
		<circle class="st0" cx="40.6" cy="98.8" r="8.1"/>
		<circle class="st0" cx="105" cy="98.8" r="8.1"/>
		<circle class="st0" cx="167.2" cy="98.8" r="8.1"/>
		<circle class="st0" cx="230.2" cy="98.8" r="8.1"/>
		<circle class="st0" cx="40.6" cy="161.7" r="8.1"/>
		<circle class="st0" cx="105" cy="161.7" r="8.1"/>
		<circle class="st0" cx="167.2" cy="161.7" r="8.1"/>
		<circle class="st0" cx="230.2" cy="161.7" r="8.1"/>
		<circle class="st0" cx="134.6" cy="67.2" r="8.1"/>
		<circle class="st0" cx="198.3" cy="67.2" r="8.1"/>
		<circle class="st0" cx="71.7" cy="128.7" r="8.1"/>
		<circle class="st0" cx="134.6" cy="128.7" r="8.1"/>
		<circle class="st0" cx="198.3" cy="128.7" r="8.1"/>
		<circle class="st0" cx="71.7" cy="191.6" r="8.1"/>
		<circle class="st0" cx="134.6" cy="191.6" r="8.1"/>
		<circle class="st0" cx="198.3" cy="191.6" r="8.1"/>
	</g>
</g>
</svg>
