<?xml version="1.0" encoding="UTF-8" standalone="no"?>
<svg width="49px" height="49px" viewBox="0 0 49 49" version="1.1" xmlns="http://www.w3.org/2000/svg" xmlns:xlink="http://www.w3.org/1999/xlink">
    <!-- Generator: Sketch 3.8.2 (29753) - http://www.bohemiancoding.com/sketch -->
    <title>facebook-block</title>
    <desc>Created with Sketch.</desc>
    <defs></defs>
    <g id="icon" stroke="none" stroke-width="1" fill="none" fill-rule="evenodd">
        <g id="facebook-block" fill="#000000">
            <path d="M3.55271368e-15,3.55271368e-15 L48.75,3.55271368e-15 L48.75,48.9438202 L3.55271368e-15,48.9438202 L3.55271368e-15,3.55271368e-15 Z M21.6264351,37.177938 L25.9871494,37.177938 C26.1130554,37.177938 26.2151224,37.0754652 26.2151224,36.9490586 L26.2151224,24.4408987 C26.2151224,24.3144921 26.3171894,24.2120193 26.4430954,24.2120193 L29.8130039,24.2120193 C29.9313034,24.2119464 30.0298917,24.1210375 30.0400027,24.0027023 L30.3127909,20.7367697 C30.3179338,20.6734241 30.2966102,20.6107837 30.2539262,20.5638488 C30.2112423,20.5169138 30.1510418,20.4899109 30.0877406,20.4893061 L26.4684257,20.4893061 C26.3425197,20.4893061 26.2404527,20.3868333 26.2404527,20.2604267 L26.2404527,17.5735394 C26.2404527,16.5846631 27.117272,16.2198255 28.1304853,16.2198255 C28.7497598,16.2335075 29.3655029,16.317508 29.9659602,16.4702235 C30.0272713,16.4852283 30.0920367,16.4739319 30.1447144,16.4390449 C30.1973921,16.404158 30.233227,16.3488297 30.2436196,16.2863375 L30.8145264,12.9079214 C30.8350848,12.7908454 30.7625536,12.6775705 30.6479307,12.6477423 C30.1608089,12.5225433 28.7705633,12.2359551 26.2404527,12.2359551 C24.2471504,12.2359551 23.081955,12.9910614 22.2528738,14.1100272 C21.450097,15.1517218 21.4247667,16.8692952 21.4247667,17.96283 L21.4247667,20.2604267 C21.4247667,20.3868333 21.3226997,20.4893061 21.1967937,20.4893061 L18.9657759,20.4893061 C18.9080438,20.4893036 18.8610922,20.5360055 18.8605576,20.5939646 L18.8352273,23.98314 C18.8352273,24.0438426 18.8592458,24.1020589 18.901999,24.1449821 C18.9447522,24.1879053 19.0027381,24.2120193 19.0632003,24.2120193 L21.1714634,24.2120193 C21.2973694,24.2120193 21.3994364,24.3144921 21.3994364,24.4408987 L21.3994364,36.9490586 C21.3994352,37.0750842 21.5009098,37.1773994 21.6264351,37.177938 Z" id="Combined-Shape"></path>
        </g>
    </g>
</svg>