<?xml version="1.0" encoding="UTF-8" standalone="no"?>
<svg width="13px" height="26px" viewBox="0 0 13 26" version="1.1" xmlns="http://www.w3.org/2000/svg" xmlns:xlink="http://www.w3.org/1999/xlink">
    <!-- Generator: Sketch 3.8.2 (29753) - http://www.bohemiancoding.com/sketch -->
    <title>facebook</title>
    <desc>Created with Sketch.</desc>
    <defs></defs>
    <g id="icon" stroke="none" stroke-width="1" fill="none" fill-rule="evenodd">
        <g id="facebook" fill="#000000">
            <path d="M3.62643513,25.177938 L7.9871494,25.177938 C8.11305542,25.177938 8.2151224,25.0754652 8.2151224,24.9490586 L8.2151224,12.4408987 C8.2151224,12.3144921 8.31718939,12.2120193 8.4430954,12.2120193 L11.8130039,12.2120193 C11.9313034,12.2119464 12.0298917,12.1210375 12.0400027,12.0027023 L12.3127909,8.73676972 C12.3179338,8.67342411 12.2966102,8.61078375 12.2539262,8.56384879 C12.2112423,8.51691382 12.1510418,8.48991085 12.0877406,8.48930612 L8.46842573,8.48930612 C8.34251972,8.48930612 8.24045274,8.38683334 8.24045274,8.26042675 L8.24045274,5.57353941 C8.24045274,4.58466314 9.11727196,4.21982551 10.1304853,4.21982551 C10.7497598,4.23350748 11.3655029,4.31750797 11.9659602,4.47022346 C12.0272713,4.48522834 12.0920367,4.47393188 12.1447144,4.43904493 C12.1973921,4.40415799 12.233227,4.3488297 12.2436196,4.28633746 L12.8145264,0.907921421 C12.8350848,0.790845358 12.7625536,0.677570538 12.6479307,0.647742304 C12.1608089,0.522543331 10.7705633,0.235955056 8.24045274,0.235955056 C6.24715037,0.235955056 5.08195504,0.991061364 4.25287376,2.11002719 C3.45009705,3.15172177 3.42476671,4.86929518 3.42476671,5.96282997 L3.42476671,8.26042675 C3.42476671,8.38683334 3.32269972,8.48930612 3.19679371,8.48930612 L0.965775913,8.48930612 C0.908043796,8.48930364 0.861092162,8.53600548 0.860557606,8.59396464 L0.835227273,11.98314 C0.835227273,12.0438426 0.859245787,12.1020589 0.901999018,12.1449821 C0.944752248,12.1879053 1.00273807,12.2120193 1.06320027,12.2120193 L3.17146338,12.2120193 C3.29736939,12.2120193 3.39943638,12.3144921 3.39943638,12.4408987 L3.39943638,24.9490586 C3.39943523,25.0750842 3.50090976,25.1773994 3.62643513,25.177938 L3.62643513,25.177938 Z" id="Combined-Shape"></path>
        </g>
    </g>
</svg>