<?xml version="1.0" encoding="utf-8"?>
<!-- Generator: Adobe Illustrator 19.0.1, SVG Export Plug-In . SVG Version: 6.00 Build 0)  -->
<svg version="1.1" id="Icons" xmlns="http://www.w3.org/2000/svg" xmlns:xlink="http://www.w3.org/1999/xlink" x="0px" y="0px"
	 viewBox="-252 450 30 30" style="enable-background:new -252 450 30 30;" xml:space="preserve">
<style type="text/css">
	.st0{fill:#696969;}
	.st1{fill:#FFFFFF;}
</style>
<g>
	<rect x="-252" y="450" class="st0" width="30" height="30"/>
	<path class="st1" d="M-232.4,457.5h-9.2c-1.6,0-2.9,1.3-2.9,2.9v3.1v6.1c0,1.6,1.3,2.9,2.9,2.9h9.2c1.6,0,2.9-1.3,2.9-2.9v-6.1
		v-3.1C-229.5,458.8-230.8,457.5-232.4,457.5z M-231.6,459.2h0.3v0.3v2.2l-2.5,0l0-2.5L-231.6,459.2z M-239.1,463.5
		c0.5-0.7,1.3-1.1,2.1-1.1c0.9,0,1.7,0.4,2.1,1.1c0.3,0.4,0.5,1,0.5,1.5c0,1.5-1.2,2.6-2.6,2.6c-1.5,0-2.6-1.2-2.6-2.6
		C-239.6,464.4-239.5,463.9-239.1,463.5z M-231,469.6c0,0.8-0.6,1.4-1.4,1.4h-9.2c-0.8,0-1.4-0.6-1.4-1.4v-6.1h2.2
		c-0.2,0.5-0.3,1-0.3,1.5c0,2.3,1.8,4.1,4.1,4.1c2.3,0,4.1-1.8,4.1-4.1c0-0.5-0.1-1.1-0.3-1.5h2.2V469.6z"/>
</g>
</svg>
