<?xml version="1.0" encoding="UTF-8" standalone="no"?>
<svg width="26px" height="25px" viewBox="0 0 26 25" version="1.1" xmlns="http://www.w3.org/2000/svg" xmlns:xlink="http://www.w3.org/1999/xlink">
    <!-- Generator: Sketch 3.8.2 (29753) - http://www.bohemiancoding.com/sketch -->
    <title>instagram</title>
    <desc>Created with Sketch.</desc>
    <defs></defs>
    <g id="icon" stroke="none" stroke-width="1" fill="none" fill-rule="evenodd">
        <g id="instagram" transform="translate(0.937500, 0.056180)" fill="#000000">
            <g id="insta">
                <path d="M25,12.5 L25,17.7710843 C25,20.753012 23.5513078,22.8212851 20.9557344,24.1516064 C19.889336,24.6987952 18.7374245,24.9447791 17.5402414,24.9447791 C14.1448692,24.9497992 10.749497,25.0050201 7.35412475,24.9246988 C4.62273642,24.8644578 2.43963783,23.6696787 0.97082495,21.3202811 C0.357142857,20.3413655 0.060362173,19.2570281 0.055331992,18.1074297 C0.0503018109,14.3925703 0.0301810865,10.6777108 0.060362173,6.96285141 C0.0804828974,4.41767068 1.32293763,2.53514056 3.44567404,1.1997992 C4.70321932,0.411646586 6.09657948,0.0552208835 7.57545272,0.0502008032 C10.8802817,0.0451807229 14.1800805,0.0251004016 17.4849095,0.0552208835 C20.0352113,0.0803212851 22.1579477,1.06425703 23.7173038,3.11746988 C24.5774648,4.25200803 25,5.55220884 25,6.97791165 L25,12.5 L25,12.5 Z M23.138833,12.5251004 L23.138833,6.97791165 C23.138833,5.97389558 22.8420523,5.06024096 22.2484909,4.26204819 C21.0965795,2.71084337 19.5020121,1.94779116 17.6006036,1.92269076 C14.2454728,1.88253012 10.8953722,1.90763052 7.54024145,1.9126506 C6.49899396,1.9126506 5.50804829,2.15863454 4.60764588,2.67570281 C2.8722334,3.6746988 1.90140845,5.14056225 1.91146881,7.1937751 C1.92152918,10.7981928 1.91146881,14.4076305 1.91649899,18.0120482 C1.91649899,19.0210843 2.21327968,19.9447791 2.81690141,20.753012 C3.97384306,22.3042169 5.56841046,23.062249 7.46981891,23.0823293 C10.8400402,23.12249 14.2102616,23.0973896 17.5804829,23.0923695 C18.3501006,23.0923695 19.0945674,22.9267068 19.8038229,22.6405622 C21.695171,21.87751 23.2142857,20.1154618 23.1539235,17.751004 C23.1036217,16.0090361 23.138833,14.2670683 23.138833,12.5251004 L23.138833,12.5251004 Z" id="Shape"></path>
                <path d="M12.5301811,17.8212851 C9.27565392,17.811245 6.6750503,15.2158635 6.69014085,11.9879518 C6.70020121,8.83534137 9.35110664,6.26506024 12.5804829,6.2751004 C15.804829,6.28514056 18.4205231,8.88554217 18.4104628,12.0732932 C18.4004024,15.2560241 15.7645875,17.8263052 12.5301811,17.8212851 L12.5301811,17.8212851 Z M12.5653924,8.13253012 C10.3521127,8.12751004 8.55633803,9.87951807 8.55130785,12.0431727 C8.54627767,14.1967871 10.3370221,15.9588353 12.5251509,15.9688755 C14.7434608,15.9738956 16.5442656,14.2269076 16.5492958,12.0732932 C16.554326,9.89959839 14.7686117,8.13253012 12.5653924,8.13253012 L12.5653924,8.13253012 Z" id="Shape"></path>
                <path d="M20.3219316,5.80321285 C20.3219316,6.51104418 19.7635815,7.08333333 19.0794769,7.07831325 C18.4004024,7.07329317 17.8521127,6.49096386 17.862173,5.77811245 C17.8672032,5.08534137 18.4205231,4.51807229 19.0945674,4.51807229 C19.7686117,4.51807229 20.3219316,5.09538153 20.3219316,5.80321285 L20.3219316,5.80321285 Z" id="Shape"></path>
            </g>
        </g>
    </g>
</svg>