<?xml version="1.0" encoding="UTF-8" standalone="no"?>
<svg width="50px" height="49px" viewBox="0 0 50 49" version="1.1" xmlns="http://www.w3.org/2000/svg" xmlns:xlink="http://www.w3.org/1999/xlink">
    <!-- Generator: Sketch 3.8.2 (29753) - http://www.bohemiancoding.com/sketch -->
    <title>instagram-block</title>
    <desc>Created with Sketch.</desc>
    <defs></defs>
    <g id="icon" stroke="none" stroke-width="1" fill="none" fill-rule="evenodd">
        <g id="instagram-block" transform="translate(0.937500, 0.056180)" fill="#000000">
            <path d="M-3.55271368e-15,-3.55271368e-15 L48.75,-3.55271368e-15 L48.75,48.9438202 L-3.55271368e-15,48.9438202 L-3.55271368e-15,-3.55271368e-15 Z M37,24.5 L37,29.7710843 C37,32.753012 35.5513078,34.8212851 32.9557344,36.1516064 C31.889336,36.6987952 30.7374245,36.9447791 29.5402414,36.9447791 C26.1448692,36.9497992 22.749497,37.0050201 19.3541247,36.9246988 C16.6227364,36.8644578 14.4396378,35.6696787 12.9708249,33.3202811 C12.3571429,32.3413655 12.0603622,31.2570281 12.055332,30.1074297 C12.0503018,26.3925703 12.0301811,22.6777108 12.0603622,18.9628514 C12.0804829,16.4176707 13.3229376,14.5351406 15.445674,13.1997992 C16.7032193,12.4116466 18.0965795,12.0552209 19.5754527,12.0502008 C22.8802817,12.0451807 26.1800805,12.0251004 29.4849095,12.0552209 C32.0352113,12.0803213 34.1579477,13.064257 35.7173038,15.1174699 C36.5774648,16.252008 37,17.5522088 37,18.9779116 L37,24.5 Z M35.138833,24.5251004 L35.138833,18.9779116 C35.138833,17.9738956 34.8420523,17.060241 34.2484909,16.2620482 C33.0965795,14.7108434 31.5020121,13.9477912 29.6006036,13.9226908 C26.2454728,13.8825301 22.8953722,13.9076305 19.5402414,13.9126506 C18.498994,13.9126506 17.5080483,14.1586345 16.6076459,14.6757028 C14.8722334,15.6746988 13.9014085,17.1405622 13.9114688,19.1937751 C13.9215292,22.7981928 13.9114688,26.4076305 13.916499,30.0120482 C13.916499,31.0210843 14.2132797,31.9447791 14.8169014,32.753012 C15.9738431,34.3042169 17.5684105,35.062249 19.4698189,35.0823293 C22.8400402,35.12249 26.2102616,35.0973896 29.5804829,35.0923695 C30.3501006,35.0923695 31.0945674,34.9267068 31.8038229,34.6405622 C33.695171,33.87751 35.2142857,32.1154618 35.1539235,29.751004 C35.1036217,28.0090361 35.138833,26.2670683 35.138833,24.5251004 Z M24.5301811,29.8212851 C21.2756539,29.811245 18.6750503,27.2158635 18.6901408,23.9879518 C18.7002012,20.8353414 21.3511066,18.2650602 24.5804829,18.2751004 C27.804829,18.2851406 30.4205231,20.8855422 30.4104628,24.0732932 C30.4004024,27.2560241 27.7645875,29.8263052 24.5301811,29.8212851 Z M24.5653924,20.1325301 C22.3521127,20.12751 20.556338,21.8795181 20.5513078,24.0431727 C20.5462777,26.1967871 22.3370221,27.9588353 24.5251509,27.9688755 C26.7434608,27.9738956 28.5442656,26.2269076 28.5492958,24.0732932 C28.554326,21.8995984 26.7686117,20.1325301 24.5653924,20.1325301 Z M32.3219316,17.8032129 C32.3219316,18.5110442 31.7635815,19.0833333 31.0794769,19.0783133 C30.4004024,19.0732932 29.8521127,18.4909639 29.862173,17.7781124 C29.8672032,17.0853414 30.4205231,16.5180723 31.0945674,16.5180723 C31.7686117,16.5180723 32.3219316,17.0953815 32.3219316,17.8032129 Z" id="Combined-Shape"></path>
        </g>
    </g>
</svg>