<?xml version="1.0" encoding="UTF-8" standalone="no"?>
<svg width="50px" height="49px" viewBox="0 0 50 49" version="1.1" xmlns="http://www.w3.org/2000/svg" xmlns:xlink="http://www.w3.org/1999/xlink">
    <!-- Generator: Sketch 3.8.2 (29753) - http://www.bohemiancoding.com/sketch -->
    <title>twitter-block</title>
    <desc>Created with Sketch.</desc>
    <defs></defs>
    <g id="icon" stroke="none" stroke-width="1" fill="none" fill-rule="evenodd">
        <g id="twitter-block" transform="translate(0.937500, 0.056180)" fill="#000000">
            <path d="M0,0 L48.75,0 L48.75,48.9438202 L0,48.9438202 L0,0 Z M10.0979331,34.2365738 C13.4522638,34.5496173 16.4227362,33.7264289 19.1333661,31.732226 C18.4306102,31.6800521 17.816437,31.5872985 17.2258858,31.3786028 C15.6786417,30.8278782 14.5211614,29.8481681 13.7711614,28.4104869 C13.6648622,28.2075883 13.5762795,27.9872985 13.4758858,27.7786028 C13.3695866,27.558313 13.4758858,27.5293275 13.6707677,27.558313 C14.4384843,27.6800521 15.2002953,27.6278782 15.9562008,27.4771536 C15.9739173,27.4713565 15.9857283,27.4539652 16.0034449,27.4423709 C16.0152559,27.3612115 15.9502953,27.3496173 15.8971457,27.3380231 C14.1845472,26.9206318 12.9030512,25.9351246 12.0231299,24.4510666 C11.5270669,23.6104869 11.2672244,22.700342 11.2376969,21.7264289 C11.2317913,21.4771536 11.3026575,21.4481681 11.5152559,21.5467188 C12.2711614,21.9061391 13.0684055,22.1264289 13.9778543,22.1554144 C13.5349409,21.8133854 13.1392717,21.500342 12.808563,21.1177333 C11.5979331,19.7206318 11.0959646,18.1148347 11.3380906,16.2887478 C11.4266732,15.6104869 11.6451772,14.9786028 11.9463583,14.3641101 C12.058563,14.1380231 12.1412402,14.1090376 12.3125,14.3119362 C13.2987205,15.4887478 14.4502953,16.4916463 15.7199803,17.3612115 C16.6707677,18.016284 17.6865157,18.5612115 18.7495079,19.0191825 C20.1254921,19.6046898 21.5605315,20.0046898 23.0369094,20.2365738 C23.5329724,20.3119362 24.0349409,20.3293275 24.5310039,20.3872985 C24.7613189,20.4104869 24.796752,20.3235304 24.7554134,20.1206318 C24.5073819,18.8568637 24.6727362,17.6336753 25.2337598,16.4800521 C26.1136811,14.6829507 27.5487205,13.5351246 29.550689,13.1177333 C31.5290354,12.7061391 33.2829724,13.1930956 34.8420276,14.4278782 C35.3439961,15.1699072 35.9758858,14.7351246 36.5487205,14.5786028 C37.4581693,14.3293275 38.3144685,13.9409217 39.1648622,13.5061391 C38.7337598,14.8568637 37.8833661,15.8945449 36.6963583,16.700342 C37.8420276,16.6249796 38.9109252,16.2771536 40.0447835,15.8365738 C39.7436024,16.3061391 39.4306102,16.6713565 39.1235236,17.0365738 C38.550689,17.7090376 37.8892717,18.2771536 37.1865157,18.8046898 C37.038878,18.9148347 36.9975394,19.0249796 37.0034449,19.1930956 C37.038878,20.4104869 36.9384843,21.6220811 36.7140748,22.8220811 C36.4778543,24.0800521 36.0999016,25.2916463 35.5979331,26.4684579 C35.0369094,27.7786028 34.328248,29.0191825 33.4660433,30.1612115 C32.3912402,31.5872985 31.1215551,32.8336753 29.6451772,33.8655594 C27.6550197,35.2568637 25.4522638,36.1612115 23.054626,36.6133854 C21.554626,36.8974434 20.0369094,36.9843999 18.5073819,36.9090376 C17.320374,36.8510666 16.1628937,36.6713565 15.0231299,36.3815014 C13.5939961,36.016284 12.2239173,35.4829507 10.9424213,34.7641101 C10.6707677,34.6075883 10.3695866,34.5032405 10.0979331,34.2365738 Z" id="Combined-Shape"></path>
        </g>
    </g>
</svg>