<?xml version="1.0" encoding="utf-8"?>
<!-- Generator: Adobe Illustrator 19.0.1, SVG Export Plug-In . SVG Version: 6.00 Build 0)  -->
<svg version="1.1" id="Icons" xmlns="http://www.w3.org/2000/svg" xmlns:xlink="http://www.w3.org/1999/xlink" x="0px" y="0px"
	 viewBox="-267 179 256 256" style="enable-background:new -267 179 256 256;" xml:space="preserve">
<path d="M-267,179v256h256V179H-267z M-100.9,287.4c0.1,0.8,0.1,1.6,0.1,2.5c0,26-19.8,56-56,56c-11.1,0-21.5-3.3-30.2-8.9
	c1.5,0.2,3.1,0.3,4.7,0.3c9.3,0,17.8-3.1,24.5-8.4c-8.6-0.2-15.9-5.9-18.4-13.7c1.2,0.3,2.4,0.4,3.7,0.4c1.8,0,3.5-0.2,5.2-0.7
	c-9-1.8-15.8-9.8-15.8-19.3c0,0,0-0.1,0-0.2c2.6,1.5,5.7,2.4,8.9,2.5c-5.3-3.5-8.8-9.6-8.8-16.4c0-3.6,1-7,2.7-9.9
	c9.7,11.9,24.2,19.8,40.6,20.6c-0.3-1.5-0.5-3-0.5-4.5c0-10.9,8.8-19.7,19.7-19.7c5.7,0,10.8,2.4,14.4,6.2c4.5-0.9,8.7-2.5,12.5-4.8
	c-1.5,4.6-4.6,8.5-8.7,10.9c4-0.5,7.8-1.5,11.3-3.1C-93.6,281.2-97,284.6-100.9,287.4z"/>
</svg>
