<?xml version="1.0" encoding="UTF-8" standalone="no"?>
<svg width="30px" height="24px" viewBox="0 0 30 24" version="1.1" xmlns="http://www.w3.org/2000/svg" xmlns:xlink="http://www.w3.org/1999/xlink">
    <!-- Generator: Sketch 3.8.2 (29753) - http://www.bohemiancoding.com/sketch -->
    <title>twitter</title>
    <desc>Created with Sketch.</desc>
    <defs></defs>
    <g id="icon" stroke="none" stroke-width="1" fill="none" fill-rule="evenodd">
        <g id="twitter" transform="translate(-0.062500, -0.943820)" fill="#000000">
            <path d="M0.0979330709,22.2365738 C3.45226378,22.5496173 6.42273622,21.7264289 9.13336614,19.732226 C8.43061024,19.6800521 7.81643701,19.5872985 7.22588583,19.3786028 C5.67864173,18.8278782 4.52116142,17.8481681 3.77116142,16.4104869 C3.6648622,16.2075883 3.57627953,15.9872985 3.47588583,15.7786028 C3.36958661,15.558313 3.47588583,15.5293275 3.67076772,15.558313 C4.43848425,15.6800521 5.20029528,15.6278782 5.95620079,15.4771536 C5.97391732,15.4713565 5.98572835,15.4539652 6.00344488,15.4423709 C6.01525591,15.3612115 5.95029528,15.3496173 5.89714567,15.3380231 C4.18454724,14.9206318 2.90305118,13.9351246 2.02312992,12.4510666 C1.52706693,11.6104869 1.26722441,10.700342 1.23769685,9.72642892 C1.23179134,9.47715356 1.30265748,9.44816805 1.51525591,9.54671878 C2.27116142,9.90613907 3.06840551,10.1264289 3.97785433,10.1554144 C3.53494094,9.81338544 3.13927165,9.50034196 2.80856299,9.11773327 C1.59793307,7.72063182 1.09596457,6.11483472 1.33809055,4.28874776 C1.42667323,3.61048689 1.64517717,2.97860283 1.94635827,2.36411008 C2.05856299,2.13802312 2.14124016,2.10903762 2.3125,2.31193617 C3.29872047,3.48874776 4.45029528,4.49164631 5.71998031,5.36121153 C6.67076772,6.01628399 7.68651575,6.56121153 8.74950787,7.01918254 C10.1254921,7.60468979 11.5605315,8.00468979 13.0369094,8.23657385 C13.5329724,8.31193617 14.0349409,8.32932747 14.5310039,8.38729849 C14.7613189,8.41048689 14.796752,8.32353037 14.7554134,8.12063182 C14.5073819,6.8568637 14.6727362,5.6336753 15.2337598,4.48005211 C16.1136811,2.68295066 17.5487205,1.53512457 19.550689,1.11773327 C21.5290354,0.706139065 23.2829724,1.19309559 24.8420276,2.4278782 C25.3439961,3.16990718 25.9758858,2.73512457 26.5487205,2.57860283 C27.4581693,2.32932747 28.3144685,1.94092167 29.1648622,1.50613907 C28.7337598,2.8568637 27.8833661,3.89454486 26.6963583,4.70034196 C27.8420276,4.62497965 28.9109252,4.27715356 30.0447835,3.83657385 C29.7436024,4.30613907 29.4306102,4.67135646 29.1235236,5.03657385 C28.550689,5.70903762 27.8892717,6.27715356 27.1865157,6.80468979 C27.038878,6.91483472 26.9975394,7.02497965 27.0034449,7.19309559 C27.038878,8.41048689 26.9384843,9.62208109 26.7140748,10.8220811 C26.4778543,12.0800521 26.0999016,13.2916463 25.5979331,14.4684579 C25.0369094,15.7786028 24.328248,17.0191825 23.4660433,18.1612115 C22.3912402,19.5872985 21.1215551,20.8336753 19.6451772,21.8655594 C17.6550197,23.2568637 15.4522638,24.1612115 13.054626,24.6133854 C11.554626,24.8974434 10.0369094,24.9843999 8.50738189,24.9090376 C7.32037402,24.8510666 6.1628937,24.6713565 5.02312992,24.3815014 C3.59399606,24.016284 2.22391732,23.4829507 0.94242126,22.7641101 C0.670767717,22.6075883 0.369586614,22.5032405 0.0979330709,22.2365738 L0.0979330709,22.2365738 Z" id="Shape"></path>
        </g>
    </g>
</svg>