<svg xmlns="http://www.w3.org/2000/svg" width="38" height="24"><rect stroke-opacity=".07" stroke="#000" fill="#FFF" x=".5" y=".5" width="37" height="23" rx="3"/><path d="M25.26 16.23c-1.697 1.48-4.157 2.27-6.275 2.27-2.97 0-5.644-1.3-7.666-3.463-.16-.17-.018-.402.173-.27 2.183 1.504 4.882 2.408 7.67 2.408 1.88 0 3.95-.46 5.85-1.416.288-.145.53.222.248.47zm.706-.957c-.216-.328-1.434-.155-1.98-.078-.167.024-.193-.148-.043-.27.97-.81 2.562-.576 2.748-.305.187.272-.047 2.16-.96 3.063-.14.138-.272.064-.21-.12.205-.604.664-1.96.446-2.29z" fill="#F90"/><path fill-rule="evenodd" d="M20.478 10.84c0 .704.017 1.292-.323 1.918-.275.508-.71.82-1.197.82-.664 0-1.05-.528-1.05-1.31 0-1.54 1.32-1.82 2.57-1.82v.392m1.744 4.407c-.114.107-.28.115-.408.044-.574-.498-.676-.73-.993-1.205-.947 1.012-1.618 1.315-2.85 1.315-1.453 0-2.587-.938-2.587-2.818 0-1.467.762-2.467 1.844-2.955.94-.433 2.25-.51 3.25-.628v-.235c0-.43.033-.94-.208-1.31-.212-.333-.616-.47-.97-.47-.66 0-1.25.353-1.392 1.085-.03.163-.144.323-.3.33l-1.677-.187c-.14-.033-.296-.153-.257-.38.386-2.125 2.223-2.766 3.867-2.766.84 0 1.94.234 2.604.9.842.82.762 1.918.762 3.11v2.818c0 .847.335 1.22.65 1.676.113.164.138.36-.003.482-.353.308-.98.88-1.326 1.2l-.005-.005" fill="#221F1F"/></svg>