<svg xmlns="http://www.w3.org/2000/svg" width="38" height="24"><path fill="#EDA024" d="M38 21.341c0 1.468-1.212 2.659-2.706 2.659h-32.588c-1.494 0-2.706-1.191-2.706-2.659v-18.682c0-1.468 1.212-2.659 2.706-2.659h32.586c1.496 0 2.708 1.191 2.708 2.659v18.682z"/><g fill="#EEAA3C"><path d="M6.418 0l-6.418 6.305v2.125l8.581-8.43zM38 19.206l-4.88 4.794h2.163l2.717-2.669zM38 14.183l-9.992 9.817h2.163l7.829-7.692zM38 4.136l-20.218 19.864h2.163l18.055-17.738zM36.695.395l-24.027 23.605h2.163l22.893-22.491c-.228-.463-.585-.848-1.029-1.114zM31.984 0l-24.428 24h2.163l24.428-24zM26.87 0l-24.404 23.976.24.024h1.899l24.428-24h-2.163zM21.758 0l-21.755 21.373c.007.594.218 1.135.56 1.575l23.358-22.948h-2.163zM16.644 0l-16.644 16.352v2.125l18.807-18.477zM11.532 0l-11.532 11.329v2.125l13.695-13.454zM38 9.159l-15.106 14.841h2.163l12.943-12.716zM2.706 0c-1.494 0-2.706 1.191-2.706 2.659v.859l3.581-3.518h-.875z"/></g><path fill="#fff" d="M15 18v-12h6.509c2.123 0 3.157 1.477 3.157 3.078 0 1.494-.817 2.798-1.87 3.032 1.203.198 2.204 1.245 2.204 2.738 0 1.817-1.168 3.151-3.307 3.151l-6.693.001zm7.792-8.641c0-.738-.575-1.359-1.377-1.359h-4.428v3h4.428c.802 0 1.377-.867 1.377-1.641zm.125 5.141c0-.756-.75-1.5-1.669-1.5h-4.248v3h4.248c.886 0 1.669-.3 1.669-1.5z"/></svg>