<svg xmlns="http://www.w3.org/2000/svg" width="38" height="24" viewBox="0 0 38 24"><path fill="#fff" d="M35.7 23.965h-33.4c-1.265 0-2.3-1.035-2.3-2.3v-19.4c0-1.265 1.035-2.3 2.3-2.3h33.4c1.265 0 2.3 1.035 2.3 2.3v19.4c0 1.265-1.035 2.3-2.3 2.3z"/><path fill="#A7A8AB" d="M35.564 23.965h-33.128c-1.344 0-2.436-1.077-2.436-2.4v-19.2c0-1.323 1.092-2.4 2.436-2.4h33.128c1.344 0 2.436 1.077 2.436 2.4v19.2c0 1.323-1.092 2.4-2.436 2.4zm-33.128-23.04c-.806 0-1.462.646-1.462 1.44v19.2c0 .794.656 1.44 1.462 1.44h33.128c.806 0 1.462-.646 1.462-1.44v-19.2c0-.794-.656-1.44-1.462-1.44h-33.128z" opacity=".25"/><g fill="#221F1F"><path d="M8.079 4.945h.7v6.298h-.7zM6.249 4.945h.7v6.298h-.7zM13.505 4.945h1.901v6.298h-1.901zM23.22 4.945h.95v6.298h-.95zM25.544 4.945h.95v6.298h-.95zM29.348 4.945h1.221v6.298h-1.221zM27.973 4.945h.395v6.298h-.395zM21.584 4.945h.395v6.298h-.395zM20.739 4.945h.395v6.298h-.395zM17.993 4.945h.395v6.298h-.395zM11.683 4.945h.395v6.298h-.395zM10.52 4.945h.733v6.298h-.733zM6.249 19.3v-6.478h2.431c.495 0 .891.065 1.191.196.299.131.532.333.701.606.17.271.255.556.255.855 0 .276-.075.537-.225.781-.149.244-.375.442-.679.593.392.115.694.311.903.588.211.276.317.603.317.98 0 .305-.065.587-.193.847-.128.261-.287.461-.475.603-.189.14-.425.247-.709.32-.285.072-.633.109-1.046.109h-2.472zm.86-3.755h1.401c.38 0 .653-.026.817-.075.219-.065.383-.173.493-.324.11-.151.166-.339.166-.567 0-.216-.051-.406-.155-.568-.103-.164-.25-.278-.442-.338s-.52-.09-.985-.09h-1.295v1.963zm0 2.995h1.614c.277 0 .472-.011.585-.032.196-.035.362-.094.495-.176.133-.083.241-.204.327-.362.086-.158.128-.341.128-.547 0-.243-.062-.452-.187-.632-.124-.179-.296-.305-.516-.377-.219-.072-.535-.109-.947-.109h-1.499v2.235zM11.922 16.952c0-.867.241-1.509.725-1.927.403-.347.896-.52 1.476-.52.644 0 1.172.211 1.582.633.409.421.614 1.004.614 1.748 0 .603-.09 1.077-.271 1.422-.181.345-.445.614-.792.805-.345.192-.724.286-1.132.286-.657 0-1.188-.21-1.594-.63-.406-.421-.608-1.027-.608-1.817zm.814.002c0 .6.131 1.05.394 1.347.264.299.594.448.994.448.395 0 .724-.149.988-.449.262-.3.394-.757.394-1.371 0-.579-.133-1.018-.397-1.315-.264-.299-.593-.448-.985-.448-.4 0-.73.148-.994.445-.262.297-.394.745-.394 1.344zM17.234 19.3v-6.478h.796v6.478h-.796zM22.465 17.78l.823.109c-.128.478-.368.85-.718 1.114-.35.264-.796.397-1.341.397-.685 0-1.227-.211-1.629-.633-.401-.421-.602-1.013-.602-1.775 0-.787.202-1.399.608-1.834.406-.436.932-.653 1.579-.653.626 0 1.137.213 1.534.639.397.427.596 1.027.596 1.8l-.004.211h-3.497c.03.514.175.909.437 1.182.261.273.588.41.979.41.291 0 .54-.077.745-.231.207-.154.369-.4.49-.737zm-2.606-1.276h2.615c-.035-.395-.136-.691-.3-.888-.252-.306-.581-.46-.983-.46-.365 0-.671.122-.92.366-.247.244-.385.572-.412.982zM26.023 18.59l.109.703c-.223.047-.424.071-.599.071-.288 0-.511-.045-.671-.137-.158-.092-.27-.211-.335-.36s-.097-.463-.097-.941v-2.705h-.588v-.615h.588v-1.161l.796-.478v1.639h.796v.615h-.796v2.751c0 .228.014.374.042.439.027.065.072.116.136.155.063.038.154.057.271.057l.347-.032zM26.51 16.952c0-.867.241-1.509.725-1.927.403-.347.896-.52 1.476-.52.644 0 1.172.211 1.582.633.409.421.614 1.004.614 1.748 0 .603-.09 1.077-.271 1.422-.181.345-.445.614-.792.805-.345.192-.724.286-1.132.286-.657 0-1.188-.21-1.594-.63-.406-.421-.608-1.027-.608-1.817zm.814.002c0 .6.131 1.05.394 1.347.264.299.594.448.994.448.395 0 .724-.149.988-.449.262-.3.394-.757.394-1.371 0-.579-.133-1.018-.397-1.315-.264-.299-.593-.448-.985-.448-.4 0-.73.148-.994.445-.262.297-.394.745-.394 1.344z"/></g></svg>