<svg xmlns="http://www.w3.org/2000/svg" width="38" height="24"><path d="M3 0C1.3 0 0 1.3 0 3v18c0 1.7 1.4 3 3 3h32c1.7 0 3-1.3 3-3V3c0-1.7-1.4-3-3-3H3z" fill="#D8232A"/><path d="M27.144 6c-.15.062-3.395 5.163-3.395 5.163L24 6h-7s-.357 3.054-.445 4.482C16.22 8.85 13.635 6 10.04 6H0v12h10.527c1.953 0 3.778-1.236 4.892-3.028.4-.657.71-1.338.98-2.04-.135 1.632-.202 3.413-.38 5.068 2.383-.023 7.373 0 7.373 0 .044-2.04.29-6.293.29-6.293L27.86 18H37c-1.746-2.037-3.537-4.44-5.076-6.627l.023-.095C33.56 9.494 35.214 7.6 37 6h-9.856zM5.128 14v-3.99c1.33.1 4.803-.066 4.803 1.995 0 2.06-3.477 1.933-4.802 1.995z" fill="#fff"/><path d="M.5 6.5v11" stroke="#e5e5e5"/></svg>