<svg xmlns="http://www.w3.org/2000/svg" width="38" height="24" viewBox="0 0 38 24"><path fill="#CE4549" d="M38 21c0 1.7-1.4 3-3.1 3h-31.8c-1.7 0-3.1-1.3-3.1-3v-18c0-1.7 1.4-3 3.1-3h31.8c1.7 0 3.1 1.3 3.1 3v18z"/><path fill="#fff" d="M38 14v-2h-11c.6-.8 1-1.9 1-3 0-2.8-2.2-5-5-5-1.1 0-2.2.4-3 1v-5h-2v12h-3c-1.7 0-3-1.3-3-3s1.3-3 3-3 3 1.3 3 3v-4c-.8-.6-1.9-1-3-1-2.8 0-5 2.2-5 5 0 1.1.4 2.2 1 3h-11v2h16.2c-2.5 2.6-6.3 3-8.2 3v2c4.4 0 7.9-1.4 10-4v-1 1 9h2v-9c2.1 2.6 5.6 4 10 4v-2c-1.9 0-5.7-.4-8.2-3h16.2zm-17.6-2h-.4v-3c0-1.7 1.3-3 3-3s3 1.3 3 3-1.3 3-3 3h-2.6z"/></svg>