<svg xmlns="http://www.w3.org/2000/svg" width="38" height="24" viewBox="0 0 38 24"><path opacity=".07" enable-background="new" d="M35 0h-32c-1.7 0-3 1.3-3 3v18c0 1.7 1.4 3 3 3h32c1.7 0 3-1.3 3-3v-18c0-1.7-1.4-3-3-3z"/><path fill="#fff" d="M35 1c1.1 0 2 .9 2 2v18c0 1.1-.9 2-2 2h-32c-1.1 0-2-.9-2-2v-18c0-1.1.9-2 2-2h32"/><path fill="#3086C8" d="M16 16c0 1.1-.9 2-2 2h-2v-10c0-1.1.9-2 2-2h2v10z"/><path fill="#CE4549" d="M21 16c0 1.1-.9 2-2 2h-2v-10c0-1.1.9-2 2-2h2v10z"/><path fill="#98C74C" d="M26 16c0 1.1-.9 2-2 2h-2v-10c0-1.1.9-2 2-2h2v10z"/></svg>