<svg xmlns="http://www.w3.org/2000/svg" width="38" height="24" viewBox="-36 25 38 24" enable-background="new -36 25 38 24"><path fill="#fff" d="M-.421 48.453h-33.157c-1.064 0-1.934-.87-1.934-1.934v-19.171c0-1.064.87-1.934 1.934-1.934h33.157c1.064 0 1.934.87 1.934 1.934v19.171c0 1.064-.87 1.934-1.934 1.934z"/><path fill="#A7A8AB" d="M-.436 48.933h-33.128c-1.344 0-2.436-1.077-2.436-2.4v-19.2c0-1.323 1.092-2.4 2.436-2.4h33.128c1.344 0 2.436 1.077 2.436 2.4v19.2c0 1.323-1.092 2.4-2.436 2.4zm-33.128-23.04c-.806 0-1.462.646-1.462 1.44v19.2c0 .794.656 1.44 1.462 1.44h33.128c.806 0 1.462-.646 1.462-1.44v-19.2c0-.794-.656-1.44-1.462-1.44h-33.128z" opacity=".25"/><g fill="#EE8122"><path d="M-20.89 33.046l.383.099c.446.133.747.5.74.964-.018 1.198-.503 2.195-1.414 2.958-.546.457-1.212.569-1.906.394-.483-.122-.763-.476-.789-.972-.048-.898.318-1.656.842-2.345.441-.579 1.011-.968 1.755-1.054l.094-.044h.295zm-.072 1.453c.009-.387-.193-.57-.487-.473-.183.061-.378.174-.497.321-.178.22-.319.479-.428.742-.125.302-.218.621-.288.941-.09.407.145.632.549.528.146-.037.309-.128.399-.245.43-.557.612-1.219.752-1.815zM-13.673 33.046l.384.098c.44.128.704.459.747.914.063.667-.18 1.254-.466 1.829-.26.523-.599.986-1.106 1.299-.538.332-1.121.437-1.735.277-.514-.134-.797-.518-.807-1.048-.027-1.359 1.002-2.874 2.206-3.244l.483-.125h.295zm-.069 1.484c.006-.437-.185-.584-.514-.503-.273.067-.449.255-.592.476-.299.465-.488.975-.578 1.521-.076.461.195.686.635.518.107-.041.218-.114.287-.203.438-.561.624-1.227.761-1.809zM-29.197 37.425c.116-.317.216-.623.344-.917.026-.06.152-.108.232-.108.78-.008 1.561-.003 2.341-.007l.375-.039c.181-.027.271-.15.282-.318.011-.158-.105-.234-.242-.276l-.501-.157c-.269-.108-.504-.264-.56-.577-.018-.099-.006-.209.016-.309.091-.41.256-.787.53-1.109.257-.302.602-.448.985-.455.928-.017 1.856-.008 2.784-.009l.024.007c-.275.297-.55.603-.836.897-.049.051-.147.074-.223.075l-1.371.005c-.09.001-.199-.004-.264.043-.092.067-.207.179-.208.273-.001.092.111.216.205.27.13.075.292.093.438.143.53.182.716.516.597 1.063-.187.86-.799 1.447-1.68 1.492-1.058.054-2.12.034-3.181.044l-.086-.033zM-13.088 37.462l.411-1.147c.356-.982.719-1.962 1.065-2.947.063-.18.151-.234.333-.229l1.391.009c.153.003.309.022.457.058.576.141.799.534.647 1.111-.144.549-.501.913-.993 1.162l-.227.114c.172.572.331 1.122.504 1.667.056.176-.005.208-.162.204-.316-.007-.633-.011-.949.002-.158.007-.224-.05-.256-.2-.08-.377-.173-.751-.262-1.125l-.073-.213-.119.253c-.142.374-.286.747-.418 1.123-.042.12-.105.162-.23.16-.357-.007-.714-.003-1.122-.003zm2.019-2.392c.434.056.781.006.994-.368.097-.17.205-.359.098-.553-.105-.19-.315-.146-.494-.15l-.125.004-.094.066-.378 1zM-20.35 37.462l.165-.479.998-2.749c.276-.757.743-1.089 1.54-1.091l2.172-.001h.136c-.304.309-.609.624-.922.93-.042.041-.127.052-.192.053-.373.005-.745.01-1.118-.001-.215-.006-.348.076-.41.281l-.154.468h1.156c-.104.285-.188.535-.291.778-.019.044-.109.079-.168.081-.274.009-.549.012-.822.001-.153-.006-.227.054-.276.195l-.489 1.367c-.044.128-.112.173-.246.169-.35-.008-.7-.003-1.08-.003zM-7.537 34.127c-.252 0-.448.008-.642-.005-.055-.004-.152-.072-.152-.11-.001-.318-.113-.589-.331-.85h4.186c-.113.312-.211.602-.328.884-.019.046-.125.078-.192.079-.379.007-.759.015-1.138-.001-.187-.008-.271.059-.332.232l-1.047 2.91c-.054.153-.127.208-.287.202-.299-.012-.599-.003-.941-.003l1.204-3.335z"/></g><g fill="#231F20"><path d="M-28.212 39.864l-.025.174-.071.151-.111.122-.148.087.118.044.094.079.061.112.022.143-.021.16-.064.153-.107.135-.15.109-.192.072-.246.026h-.515l-.074-.025-.011-.08.346-1.734.048-.082.078-.023h.418l.249.025.168.073.1.119.033.162zm-.334.929c0-.083-.03-.148-.089-.193-.059-.046-.15-.068-.274-.068h-.332l-.135.685h.362l.208-.035.142-.093.087-.134.03-.161zm.059-.882l-.017-.089-.053-.067-.093-.044-.148-.016h-.274l-.125.63h.293l.195-.039.125-.1.072-.134.023-.141zM-26.557 41.338l.002.053-.017.031-.044.014-.081.003-.057-.002-.037-.008-.019-.014-.008-.023-.072-.473h-.81l-.254.469-.017.025-.027.016-.045.008-.068.002-.072-.004-.038-.014-.006-.031.021-.053 1.013-1.806.023-.027.032-.017.05-.008.074-.002.08.002.05.008.026.017.011.028.292 1.806zm-.506-1.594h-.002l-.526.969h.673l-.146-.969zM-24.764 41.323l-.018.051-.031.035-.037.02-.039.006h-.098l-.066-.009-.047-.031-.036-.057-.034-.088-.365-1.037-.074-.222-.071-.222h-.003l-.042.245-.047.243-.225 1.133-.011.021-.024.014-.041.009-.059.004-.058-.004-.035-.009-.016-.014-.001-.021.358-1.794.05-.086.077-.026h.119l.063.008.047.027.035.05.033.079.368 1.05.068.195.067.197h.003l.046-.255.049-.255.212-1.053.011-.02.023-.014.038-.009.059-.003.058.003.036.009.017.014.003.02-.361 1.796zM-22.656 39.525l-.016.042-.049.054-.807.787.509.906.019.041.005.028-.006.024-.02.017-.041.01-.067.004-.068-.003-.042-.008-.024-.015-.014-.023-.532-.971-.192.972-.01.021-.025.014-.042.009-.062.004-.062-.004-.038-.009-.018-.014-.002-.021.373-1.868.011-.02.026-.014.042-.009.062-.004.061.004.038.009.018.014.003.02-.173.866.851-.863.026-.023.033-.015.046-.008.063-.003.063.004.038.01.019.015.005.021zM-22.402 41.392l-.01.02-.025.014-.042.009-.062.004-.063-.004-.038-.009-.018-.014-.002-.02.373-1.869.011-.02.026-.014.041-.009.061-.004.06.004.038.009.019.014.002.02-.373 1.869zM-20.406 41.323l-.018.051-.031.035-.037.02-.039.006h-.098l-.066-.009-.047-.031-.036-.057-.034-.088-.365-1.037-.074-.222-.071-.222h-.003l-.042.245-.047.243-.225 1.133-.011.021-.024.014-.041.009-.059.004-.058-.004-.035-.009-.016-.014-.001-.021.358-1.794.05-.086.077-.026h.119l.063.008.047.027.035.05.033.079.368 1.05.068.195.067.197h.003l.046-.255.049-.255.212-1.053.011-.02.023-.014.038-.009.059-.003.058.003.036.009.017.014.003.02-.361 1.796zM-18.106 39.697l-.002.026-.006.033-.01.036-.014.033-.017.023-.02.008-.061-.027-.102-.061-.156-.062-.219-.028-.25.04-.214.11-.174.165-.13.207-.081.235-.028.249.038.234.11.171.174.104.228.035.195-.022.189-.067.113-.564h-.449l-.028-.013-.01-.037.002-.028.006-.035.011-.036.016-.032.02-.023.025-.008h.618l.061.029.008.077-.15.748-.016.046-.022.031-.068.04-.138.053-.188.047-.219.02c-.13 0-.245-.017-.344-.05-.099-.034-.182-.082-.249-.147-.067-.064-.118-.142-.153-.233-.035-.091-.053-.194-.053-.31 0-.107.012-.213.037-.316l.106-.295c.046-.093.103-.179.171-.258.068-.079.145-.147.233-.204.088-.057.184-.102.289-.135.105-.033.219-.05.341-.05l.197.019.164.045.122.058.068.048.024.032.006.038z"/></g></svg>