<?xml version="1.0" encoding="UTF-8"?>
<!DOCTYPE svg PUBLIC "-//W3C//DTD SVG 1.1//EN" "http://www.w3.org/Graphics/SVG/1.1/DTD/svg11.dtd">
<svg version="1.1" xmlns="http://www.w3.org/2000/svg" xmlns:xlink="http://www.w3.org/1999/xlink" width="30" height="30"  xml:space="preserve">
    <g id="icon">
        <path id="bezier2" stroke="none" fill="rgb(0, 0, 0)" d="M 14.02,8 L 8.03,8 8,9 14.02,9 14.5,9 14.5,8 14.02,8 Z M 1.1,18.77 L 2.51,3.77 7.4,3.77 C 7.15,4.61 7,5.77 7,6.77 L 8,6.77 C 8,5.77 8.17,4.58 8.45,3.77 L 14.2,3.77 C 14.49,4.58 14.65,5.77 14.65,6.77 L 15.65,6.77 C 15.65,5.77 15.51,4.61 15.25,3.77 L 20.64,3.77 22.06,18.77 1.1,18.77 Z M 11.33,1 C 12.26,1 13.13,1.68 13.75,2.77 L 8.9,2.77 C 9.52,1.68 10.39,1 11.33,1 Z M 23.06,18.83 L 23.06,18.71 21.55,2.77 14.87,2.77 C 14.1,1.1 12.82,-0 11.33,-0 9.83,-0 8.55,1.1 7.78,2.77 L 1.6,2.77 0.09,18.73 0.09,18.84 -0,19.77 0.91,19.77 1,19.77 22.15,19.77 22.25,19.77 23.16,19.77 23.06,18.83 Z M 23.06,18.83" />
    </g>
</svg>
