<?xml version="1.0" encoding="utf-8"?>
<!-- Generator: Adobe Illustrator 19.0.1, SVG Export Plug-In . SVG Version: 6.00 Build 0)  -->
<svg version="1.1" id="Ebene_1" xmlns="http://www.w3.org/2000/svg" xmlns:xlink="http://www.w3.org/1999/xlink" x="0px" y="0px"
	 viewBox="0 0 113.4 113.4" style="enable-background:new 0 0 113.4 113.4;" xml:space="preserve">
<g>
	<g>
		<path d="M94.8,108.1H18.6c-0.8,0-1.5-0.6-1.6-1.4L5.3,44.1c-0.1-0.5,0-1,0.4-1.4c0.3-0.4,0.8-0.6,1.3-0.6h99.5
			c0.5,0,1,0.2,1.3,0.6c0.3,0.4,0.4,0.9,0.4,1.4l-11.6,62.7C96.3,107.6,95.6,108.1,94.8,108.1z M20,104.8h73.5l11-59.4H8.9L20,104.8
			z"/>
	</g>
	<g>
		<path d="M81.6,58.4c-0.9,0-1.7-0.7-1.7-1.7V31.8C79.9,19,69.5,8.6,56.7,8.6C43.9,8.6,33.5,19,33.5,31.8v24.9
			c0,0.9-0.7,1.7-1.7,1.7c-0.9,0-1.7-0.7-1.7-1.7V31.8c0-14.6,11.9-26.5,26.5-26.5s26.5,11.9,26.5,26.5v24.9
			C83.2,57.6,82.5,58.4,81.6,58.4z"/>
	</g>
	<g>
		<path d="M69.8,63.9H43.5c-0.9,0-1.7-0.7-1.7-1.7c0-0.9,0.7-1.7,1.7-1.7h26.4c0.9,0,1.7,0.7,1.7,1.7C71.5,63.1,70.8,63.9,69.8,63.9
			z"/>
	</g>
</g>
</svg>
