<?xml version="1.0" encoding="utf-8"?>
<!-- Generator: Adobe Illustrator 16.0.4, SVG Export Plug-In . SVG Version: 6.00 Build 0)  -->
<!DOCTYPE svg PUBLIC "-//W3C//DTD SVG 1.1//EN" "http://www.w3.org/Graphics/SVG/1.1/DTD/svg11.dtd">
<svg version="1.1" id="Ebene_1" xmlns="http://www.w3.org/2000/svg" xmlns:xlink="http://www.w3.org/1999/xlink" x="0px" y="0px"
	 width="19px" height="21px" viewBox="-2 0 19 21" enable-background="new -2 0 19 21" xml:space="preserve">
<path d="M16.399,5.257h-5.67C10.325,2.444,9.071,0.5,7.5,0.5c-1.574,0-2.826,1.943-3.23,4.757H-1.4c-0.122,0-0.223,0.1-0.223,0.222
	l2,14.801C0.377,20.4,0.478,20.5,0.6,20.5H14.4c0.121,0,0.223-0.1,0.223-0.221l2-14.801C16.623,5.356,16.521,5.257,16.399,5.257z
	 M7.5,1.624c0.828,0,1.729,1.463,2.086,3.633H5.412C5.769,3.087,6.672,1.624,7.5,1.624z"/>
</svg>
