<?xml version="1.0" encoding="UTF-8"?>
<!DOCTYPE svg PUBLIC "-//W3C//DTD SVG 1.1//EN" "http://www.w3.org/Graphics/SVG/1.1/DTD/svg11.dtd">
<svg version="1.1" xmlns="http://www.w3.org/2000/svg" xmlns:xlink="http://www.w3.org/1999/xlink" width="30" height="30"  xml:space="preserve">
    <g id="group">
        <path id="rectangle" stroke="none" fill="rgb(0, 0, 0)" d="M 1,28 L 29,28 26.57,6.95 3.43,6.95 1,28 Z M 1,28" />
        <path id="bezier" stroke="none" fill="rgb(0, 0, 0)" d="M 10.44,8.44 C 10.52,7.87 10.74,6.07 11.21,5.25 12.01,3.84 13.26,2.95 14.99,2.93 16.74,2.91 18.01,3.81 18.81,5.26 19.26,6.08 19.48,7.88 19.56,8.45 L 17.75,8.7 C 17.74,8.62 17.71,8.46 17.65,8.24 17.55,7.87 17.4,6.5 17.22,6.17 16.72,5.27 16.03,4.77 15.01,4.79 13.99,4.8 13.29,5.29 12.79,6.18 12.6,6.51 12.46,7.88 12.35,8.24 12.29,8.46 12.26,8.62 12.25,8.7 L 10.44,8.44 Z M 10.44,8.44" />
    </g>
</svg>
