<?xml version="1.0" encoding="utf-8"?>
<!-- Generator: Adobe Illustrator 19.0.1, SVG Export Plug-In . SVG Version: 6.00 Build 0)  -->
<svg version="1.1" id="Ebene_2" xmlns="http://www.w3.org/2000/svg" xmlns:xlink="http://www.w3.org/1999/xlink" x="0px" y="0px"
	 viewBox="0 0 42.5 42.5" style="enable-background:new 0 0 42.5 42.5;" xml:space="preserve">
<g>
	<path d="M21.3,39.8c-10.2,0-18.5-8.3-18.5-18.5c0-10.2,8.3-18.5,18.5-18.5s18.5,8.3,18.5,18.5C39.8,31.5,31.5,39.8,21.3,39.8z
		 M21.3,3.8c-9.6,0-17.5,7.9-17.5,17.5c0,9.6,7.9,17.5,17.5,17.5s17.5-7.9,17.5-17.5C38.8,11.6,30.9,3.8,21.3,3.8z"/>
</g>
<g>
	<path d="M19.8,30.4c-0.1,0-0.3-0.1-0.4-0.2l-5.9-6.9c-0.2-0.2-0.2-0.5,0.1-0.7s0.5-0.2,0.7,0.1l5.5,6.4l10.6-16.4
		c0.1-0.2,0.5-0.3,0.7-0.1c0.2,0.1,0.3,0.5,0.1,0.7L20.2,30.2C20.2,30.3,20,30.4,19.8,30.4C19.8,30.4,19.8,30.4,19.8,30.4z"/>
</g>
</svg>
