<?xml version="1.0" encoding="utf-8"?>
<!-- Generator: Adobe Illustrator 16.0.0, SVG Export Plug-In . SVG Version: 6.00 Build 0)  -->
<!DOCTYPE svg PUBLIC "-//W3C//DTD SVG 1.1//EN" "http://www.w3.org/Graphics/SVG/1.1/DTD/svg11.dtd">
<svg version="1.1" id="Ebene_1" xmlns="http://www.w3.org/2000/svg" xmlns:xlink="http://www.w3.org/1999/xlink" x="0px" y="0px"
	 width="39.471px" height="39.344px" viewBox="0 0 39.471 39.344" enable-background="new 0 0 39.471 39.344" xml:space="preserve">
<g>
	<path d="M19.784,1C9.427,1,1,9.427,1,19.784s8.427,18.784,18.784,18.784s18.784-8.427,18.784-18.784S30.142,1,19.784,1z
		 M19.784,36.568C10.529,36.568,3,29.039,3,19.784S10.529,3,19.784,3s16.784,7.529,16.784,16.784S29.039,36.568,19.784,36.568z"/>
	<path d="M19.8,29.168c-0.552,0-1,0.448-1,1v3.006c0,0.552,0.448,1,1,1s1-0.448,1-1v-3.006C20.8,29.616,20.352,29.168,19.8,29.168z"
		/>
	<path d="M24.768,7.358c-1.372-1.372-3.196-2.127-5.136-2.127s-3.764,0.755-5.136,2.127c-0.391,0.391-0.391,1.023,0,1.414
		s1.023,0.391,1.414,0c2.053-2.052,5.391-2.052,7.443,0c2.052,2.052,2.052,5.391,0,7.443c-0.007,0.007-0.01,0.018-0.017,0.025
		c-0.007,0.008-0.018,0.011-0.025,0.019c-0.433,0.489-0.877,0.895-1.308,1.288C20.356,19.05,18.8,20.47,18.8,25.475
		c0,0.552,0.448,1,1,1s1-0.448,1-1c0-4.123,1.07-5.099,2.552-6.45c0.434-0.396,0.925-0.847,1.414-1.394
		c0-0.001,0.001-0.001,0.002-0.001c0.004-0.004,0.008-0.009,0.012-0.013c0.01-0.011,0.02-0.02,0.03-0.031
		c0.001-0.001,0.001-0.003,0.003-0.005c1.342-1.366,2.083-3.169,2.083-5.086C26.895,10.554,26.14,8.729,24.768,7.358z"/>
</g>
</svg>
