<?xml version="1.0" encoding="utf-8"?>
<!-- Generator: Adobe Illustrator 16.0.4, SVG Export Plug-In . SVG Version: 6.00 Build 0)  -->
<!DOCTYPE svg PUBLIC "-//W3C//DTD SVG 1.1//EN" "http://www.w3.org/Graphics/SVG/1.1/DTD/svg11.dtd">
<svg version="1.1" id="Ebene_1" xmlns="http://www.w3.org/2000/svg" xmlns:xlink="http://www.w3.org/1999/xlink" x="0px" y="0px"
	 width="178.038px" height="13.64px" viewBox="34.981 2.68 178.038 13.64" enable-background="new 34.981 2.68 178.038 13.64"
	 xml:space="preserve">
<g>
	<path d="M35.5,3.342h1.67v5.116h6.384V3.342h1.669v12.317h-1.669v-5.636H37.17v5.636H35.5V3.342z"/>
	<path d="M56.637,15.973c-0.939,0-1.803-0.164-2.592-0.495c-0.789-0.33-1.464-0.785-2.026-1.364
		c-0.562-0.581-1.003-1.265-1.323-2.054s-0.477-1.642-0.477-2.557c0-0.916,0.158-1.769,0.477-2.557
		c0.319-0.789,0.76-1.473,1.323-2.054c0.562-0.58,1.239-1.035,2.026-1.365c0.789-0.331,1.653-0.497,2.592-0.497
		c0.939,0,1.803,0.166,2.591,0.497c0.791,0.331,1.465,0.786,2.028,1.365c0.562,0.581,1.002,1.265,1.321,2.054
		c0.319,0.789,0.479,1.642,0.479,2.557s-0.16,1.768-0.479,2.557c-0.318,0.789-0.759,1.474-1.321,2.054
		c-0.563,0.58-1.239,1.034-2.028,1.364C58.441,15.808,57.576,15.973,56.637,15.973z M56.637,14.407c0.707,0,1.345-0.132,1.914-0.393
		s1.055-0.613,1.461-1.053c0.406-0.44,0.72-0.959,0.941-1.559c0.22-0.595,0.331-1.23,0.331-1.903s-0.111-1.307-0.331-1.905
		c-0.221-0.597-0.534-1.118-0.941-1.557c-0.406-0.441-0.893-0.792-1.461-1.053c-0.568-0.261-1.207-0.392-1.914-0.392
		c-0.708,0-1.345,0.131-1.914,0.392c-0.568,0.261-1.056,0.612-1.461,1.053c-0.407,0.44-0.72,0.959-0.939,1.557
		c-0.22,0.598-0.331,1.232-0.331,1.905s0.111,1.308,0.331,1.903c0.22,0.599,0.532,1.118,0.939,1.559
		c0.406,0.439,0.893,0.791,1.461,1.053C55.292,14.275,55.929,14.407,56.637,14.407z"/>
	<path d="M68.066,3.342h4.333c0.789,0,1.438,0.108,1.949,0.322c0.509,0.214,0.912,0.488,1.209,0.818
		c0.295,0.331,0.501,0.702,0.617,1.113c0.115,0.412,0.173,0.809,0.173,1.192c0,0.394-0.07,0.774-0.208,1.139
		c-0.14,0.365-0.34,0.695-0.601,0.992c-0.262,0.295-0.581,0.544-0.958,0.747c-0.376,0.205-0.798,0.328-1.261,0.374l3.497,5.619
		H74.73l-3.131-5.427h-1.862v5.427h-1.67V3.342L68.066,3.342z M69.737,8.77h2.192c0.325,0,0.646-0.026,0.966-0.078
		c0.319-0.052,0.603-0.148,0.852-0.287c0.25-0.14,0.449-0.339,0.601-0.6c0.151-0.262,0.226-0.601,0.226-1.018
		c0-0.418-0.075-0.757-0.226-1.018c-0.152-0.26-0.352-0.461-0.601-0.599c-0.25-0.14-0.533-0.235-0.852-0.289
		c-0.319-0.052-0.641-0.078-0.966-0.078h-2.192V8.77z"/>
	<path d="M81.307,3.342h1.67v12.317h-1.67V3.342z"/>
	<path d="M87.726,14.094l7.012-9.186h-6.803V3.341h8.889v1.566l-6.976,9.186h7.081v1.564h-9.204V14.094L87.726,14.094z"/>
	<path d="M101.678,3.342h2.192l6.785,10.125h0.035V3.342h1.67v12.317h-2.122l-6.855-10.124h-0.035v10.124h-1.67V3.342L101.678,3.342
		z"/>
	<path d="M125.931,13.085c0.301,0.452,0.687,0.785,1.156,0.999c0.47,0.215,0.953,0.323,1.453,0.323c0.278,0,0.562-0.044,0.852-0.132
		c0.29-0.087,0.554-0.218,0.791-0.392c0.237-0.173,0.433-0.39,0.583-0.644c0.149-0.254,0.227-0.552,0.227-0.888
		c0-0.476-0.152-0.838-0.454-1.087c-0.301-0.25-0.675-0.457-1.12-0.626c-0.447-0.168-0.936-0.33-1.462-0.487
		s-1.016-0.374-1.461-0.652c-0.447-0.279-0.82-0.653-1.121-1.123c-0.303-0.469-0.453-1.104-0.453-1.905
		c0-0.359,0.077-0.742,0.233-1.148c0.157-0.406,0.402-0.776,0.74-1.113c0.336-0.337,0.769-0.619,1.296-0.845
		c0.527-0.226,1.163-0.339,1.905-0.339c0.673,0,1.316,0.093,1.931,0.278c0.613,0.186,1.154,0.562,1.618,1.131l-1.357,1.235
		c-0.209-0.324-0.504-0.584-0.888-0.783c-0.382-0.196-0.816-0.295-1.304-0.295c-0.464,0-0.851,0.061-1.156,0.183
		c-0.309,0.121-0.555,0.278-0.741,0.469c-0.186,0.192-0.314,0.398-0.391,0.618s-0.113,0.422-0.113,0.608
		c0,0.522,0.152,0.922,0.453,1.2c0.302,0.279,0.676,0.504,1.122,0.679c0.446,0.174,0.934,0.331,1.461,0.47
		c0.528,0.14,1.015,0.334,1.461,0.583c0.447,0.25,0.821,0.585,1.122,1.01c0.301,0.422,0.451,1.006,0.451,1.747
		c0,0.591-0.111,1.124-0.34,1.6c-0.224,0.477-0.53,0.877-0.912,1.202c-0.381,0.324-0.835,0.574-1.356,0.747
		c-0.522,0.175-1.079,0.262-1.671,0.262c-0.789,0-1.537-0.14-2.244-0.419c-0.708-0.278-1.271-0.706-1.687-1.288L125.931,13.085z"/>
	<path d="M140.423,4.909h-3.967V3.342h9.603v1.566h-3.967v10.75h-1.669V4.909z"/>
	<path d="M151.887,3.342v7.551c0,0.382,0.052,0.779,0.157,1.19c0.104,0.414,0.278,0.792,0.521,1.14s0.562,0.634,0.957,0.853
		c0.394,0.22,0.881,0.332,1.46,0.332c0.581,0,1.067-0.112,1.461-0.332c0.396-0.22,0.714-0.505,0.958-0.853
		c0.243-0.349,0.417-0.728,0.521-1.14c0.104-0.411,0.157-0.809,0.157-1.19V3.342h1.671v7.811c0,0.72-0.122,1.371-0.366,1.958
		c-0.242,0.585-0.58,1.093-1.009,1.521c-0.429,0.43-0.935,0.759-1.514,0.991s-1.207,0.349-1.879,0.349
		c-0.671,0-1.299-0.115-1.879-0.349c-0.58-0.23-1.085-0.562-1.513-0.991c-0.431-0.43-0.767-0.937-1.01-1.521
		c-0.243-0.587-0.366-1.239-0.366-1.958V3.342H151.887z"/>
	<path d="M165.022,3.342h4.298c0.869,0,1.63,0.1,2.287,0.295c0.653,0.198,1.223,0.461,1.703,0.792
		c0.481,0.33,0.882,0.71,1.202,1.138c0.318,0.43,0.569,0.87,0.756,1.322c0.185,0.453,0.319,0.906,0.4,1.358
		c0.082,0.452,0.121,0.87,0.121,1.252c0,0.789-0.145,1.552-0.433,2.289c-0.291,0.734-0.72,1.391-1.288,1.964
		c-0.568,0.574-1.273,1.034-2.114,1.383s-1.812,0.522-2.915,0.522h-4.017L165.022,3.342L165.022,3.342z M166.691,14.094h2.104
		c0.709,0,1.378-0.097,2.011-0.288c0.633-0.19,1.186-0.477,1.662-0.86c0.476-0.383,0.853-0.861,1.13-1.436
		c0.278-0.572,0.418-1.243,0.418-2.008c0-0.394-0.064-0.855-0.19-1.383c-0.131-0.527-0.37-1.029-0.724-1.505
		c-0.354-0.475-0.844-0.876-1.471-1.209c-0.626-0.33-1.438-0.495-2.436-0.495h-2.506L166.691,14.094L166.691,14.094z"/>
	<path d="M180.784,3.342h1.67v12.317h-1.67V3.342z"/>
	<path d="M193.867,15.973c-0.939,0-1.805-0.164-2.592-0.495c-0.789-0.33-1.464-0.785-2.025-1.364
		c-0.562-0.581-1.006-1.265-1.324-2.054c-0.319-0.789-0.478-1.642-0.478-2.557c0-0.916,0.158-1.769,0.478-2.557
		c0.318-0.789,0.762-1.473,1.324-2.054c0.562-0.58,1.236-1.035,2.025-1.365c0.787-0.331,1.652-0.497,2.592-0.497
		c0.938,0,1.804,0.166,2.594,0.497c0.787,0.331,1.462,0.786,2.024,1.365c0.563,0.581,1.004,1.265,1.322,2.054
		c0.32,0.789,0.479,1.642,0.479,2.557s-0.158,1.768-0.479,2.557c-0.318,0.789-0.759,1.474-1.322,2.054
		c-0.562,0.58-1.238,1.034-2.024,1.364C195.671,15.808,194.806,15.973,193.867,15.973z M193.867,14.407
		c0.707,0,1.345-0.132,1.913-0.393c0.567-0.261,1.056-0.613,1.462-1.053c0.405-0.44,0.719-0.959,0.938-1.559
		c0.223-0.595,0.332-1.23,0.332-1.903s-0.109-1.307-0.332-1.905c-0.22-0.597-0.533-1.118-0.938-1.557
		c-0.406-0.441-0.895-0.792-1.462-1.053c-0.568-0.261-1.206-0.392-1.913-0.392s-1.345,0.131-1.913,0.392
		c-0.569,0.261-1.056,0.612-1.462,1.053c-0.405,0.44-0.718,0.959-0.94,1.557c-0.221,0.598-0.33,1.232-0.33,1.905
		s0.109,1.308,0.33,1.903c0.223,0.599,0.533,1.118,0.94,1.559c0.406,0.439,0.893,0.791,1.462,1.053
		C192.522,14.275,193.16,14.407,193.867,14.407z"/>
	<path d="M205.663,13.085c0.303,0.452,0.688,0.785,1.157,0.999c0.469,0.215,0.953,0.323,1.451,0.323c0.28,0,0.562-0.044,0.854-0.132
		c0.289-0.087,0.552-0.218,0.79-0.392c0.238-0.173,0.434-0.39,0.584-0.644c0.151-0.254,0.226-0.552,0.226-0.888
		c0-0.476-0.15-0.838-0.453-1.087c-0.302-0.25-0.674-0.457-1.121-0.626c-0.446-0.168-0.935-0.33-1.461-0.487
		c-0.527-0.157-1.015-0.374-1.461-0.652c-0.446-0.279-0.822-0.653-1.122-1.123c-0.303-0.469-0.453-1.104-0.453-1.905
		c0-0.359,0.079-0.742,0.235-1.148c0.157-0.406,0.402-0.776,0.739-1.113c0.336-0.337,0.767-0.619,1.296-0.845
		c0.527-0.226,1.164-0.339,1.904-0.339c0.672,0,1.316,0.093,1.931,0.278c0.615,0.186,1.154,0.562,1.618,1.131l-1.355,1.235
		c-0.211-0.324-0.507-0.584-0.888-0.783c-0.383-0.196-0.819-0.295-1.306-0.295c-0.464,0-0.851,0.061-1.157,0.183
		c-0.308,0.121-0.553,0.278-0.739,0.469c-0.186,0.192-0.315,0.398-0.392,0.618c-0.073,0.22-0.111,0.422-0.111,0.608
		c0,0.522,0.149,0.922,0.454,1.2c0.3,0.279,0.674,0.504,1.12,0.679c0.446,0.174,0.934,0.331,1.462,0.47
		c0.527,0.14,1.015,0.334,1.461,0.583c0.446,0.25,0.818,0.585,1.121,1.01c0.302,0.422,0.453,1.006,0.453,1.747
		c0,0.591-0.113,1.124-0.34,1.6c-0.228,0.477-0.53,0.877-0.914,1.202c-0.383,0.324-0.834,0.574-1.356,0.747
		c-0.522,0.175-1.079,0.262-1.67,0.262c-0.789,0-1.538-0.14-2.244-0.419c-0.707-0.278-1.271-0.706-1.687-1.288L205.663,13.085z"/>
</g>
</svg>
