<?xml version="1.0" encoding="utf-8"?>
<!-- Generator: Adobe Illustrator 19.0.1, SVG Export Plug-In . SVG Version: 6.00 Build 0)  -->
<svg version="1.1" id="Ebene_2" xmlns="http://www.w3.org/2000/svg" xmlns:xlink="http://www.w3.org/1999/xlink" x="0px" y="0px"
	 viewBox="0 0 31.5 38.7" style="enable-background:new 0 0 31.5 38.7;" xml:space="preserve">
<g>
	<path d="M15.2,22.1c-0.1,0-0.1,0-0.2,0c-0.2-0.1-0.3-0.3-0.3-0.5v-1.5h-1.2c-1,0-1.8-0.8-1.8-1.8v-8c0-1,0.8-1.8,1.8-1.8h15.4
		c1,0,1.8,0.8,1.8,1.8v8c0,1-0.8,1.8-1.8,1.8H17.5l-1.9,1.8C15.5,22,15.3,22.1,15.2,22.1z M13.5,9.5c-0.4,0-0.8,0.3-0.8,0.8v8
		c0,0.4,0.3,0.8,0.8,0.8h1.7c0.3,0,0.5,0.2,0.5,0.5v0.8l1.2-1.2c0.1-0.1,0.2-0.1,0.3-0.1h11.6c0.4,0,0.8-0.3,0.8-0.8v-8
		c0-0.4-0.3-0.8-0.8-0.8H13.5z"/>
</g>
<g>
	<path d="M28,14.8H14.6c-0.3,0-0.5-0.2-0.5-0.5s0.2-0.5,0.5-0.5H28c0.3,0,0.5,0.2,0.5,0.5S28.2,14.8,28,14.8z"/>
</g>
<g>
	<path d="M28,12.2H14.6c-0.3,0-0.5-0.2-0.5-0.5s0.2-0.5,0.5-0.5H28c0.3,0,0.5,0.2,0.5,0.5S28.2,12.2,28,12.2z"/>
</g>
<g>
	<path d="M22.7,17.3h-8.1c-0.3,0-0.5-0.2-0.5-0.5s0.2-0.5,0.5-0.5h8.1c0.3,0,0.5,0.2,0.5,0.5S22.9,17.3,22.7,17.3z"/>
</g>
<g>
	<path d="M12.2,36.4c-0.9,0-1.5-0.7-1.5-1.5s0.7-1.5,1.5-1.5s1.5,0.7,1.5,1.5S13,36.4,12.2,36.4z M12.2,34.3c-0.3,0-0.5,0.2-0.5,0.5
		s0.2,0.5,0.5,0.5s0.5-0.2,0.5-0.5S12.5,34.3,12.2,34.3z"/>
</g>
<g>
	<path d="M19.9,32.9H4.5c-0.3,0-0.5-0.2-0.5-0.5V4.2C4,4,4.2,3.7,4.5,3.7h15.4c0.3,0,0.5,0.2,0.5,0.5v2.9c0,0.3-0.2,0.5-0.5,0.5
		s-0.5-0.2-0.5-0.5V4.7H5v27.1h14.4v-10c0-0.3,0.2-0.5,0.5-0.5s0.5,0.2,0.5,0.5v10.5C20.4,32.6,20.1,32.9,19.9,32.9z"/>
</g>
<g>
	<path d="M20.7,37.9H3.6c-1.4,0-2.5-1.1-2.5-2.5V3.4c0-1.4,1.1-2.5,2.5-2.5h17.1c1.4,0,2.5,1.1,2.5,2.5v3.7c0,0.3-0.2,0.5-0.5,0.5
		s-0.5-0.2-0.5-0.5V3.4c0-0.8-0.7-1.5-1.5-1.5H3.6c-0.8,0-1.5,0.7-1.5,1.5v32.1c0,0.8,0.7,1.5,1.5,1.5h17.1c0.8,0,1.5-0.7,1.5-1.5
		V21.9c0-0.3,0.2-0.5,0.5-0.5s0.5,0.2,0.5,0.5v13.6C23.2,36.8,22.1,37.9,20.7,37.9z"/>
</g>
</svg>
