<?xml version="1.0" encoding="utf-8"?>
<!-- Generator: Adobe Illustrator 16.0.4, SVG Export Plug-In . SVG Version: 6.00 Build 0)  -->
<!DOCTYPE svg PUBLIC "-//W3C//DTD SVG 1.1//EN" "http://www.w3.org/Graphics/SVG/1.1/DTD/svg11.dtd">
<svg version="1.1" id="Capa_1" xmlns="http://www.w3.org/2000/svg" xmlns:xlink="http://www.w3.org/1999/xlink" x="0px" y="0px"
	 width="38px" height="38px" viewBox="-3 -3 38 38" enable-background="new -3 -3 38 38" xml:space="preserve">
<path d="M16.688,16l9.254-9.255c0.076-0.075,0.076-0.2,0-0.275l-0.413-0.413c-0.075-0.076-0.199-0.076-0.275,0L16,15.312l0,0
	L6.745,6.057c-0.075-0.076-0.2-0.076-0.275,0L6.057,6.47c-0.076,0.076-0.076,0.2,0,0.275L15.311,16l0,0l-9.255,9.255
	c-0.076,0.075-0.076,0.2,0,0.275l0.413,0.413c0.076,0.076,0.2,0.076,0.275,0L16,16.688l0.002,0.003l9.252,9.252
	c0.075,0.076,0.199,0.076,0.275,0l0.413-0.413c0.075-0.075,0.075-0.2,0-0.275l-9.252-9.252"/>
</svg>
