<?xml version="1.0" encoding="utf-8"?>
<!-- Generator: Adobe Illustrator 16.0.4, SVG Export Plug-In . SVG Version: 6.00 Build 0)  -->
<!DOCTYPE svg PUBLIC "-//W3C//DTD SVG 1.1//EN" "http://www.w3.org/Graphics/SVG/1.1/DTD/svg11.dtd">
<svg version="1.1" id="Capa_1" xmlns="http://www.w3.org/2000/svg" xmlns:xlink="http://www.w3.org/1999/xlink" x="0px" y="0px"
	 width="8px" height="8px" viewBox="43.463 43.463 8 8" enable-background="new 43.463 43.463 8 8" xml:space="preserve">
<g>
	<path d="M48.089,47.463l2.83-2.83c0.061-0.061,0.061-0.16,0-0.221l-0.404-0.403c-0.029-0.029-0.069-0.046-0.11-0.046
		c-0.042,0-0.081,0.017-0.11,0.046l-2.83,2.83l-2.83-2.83c-0.059-0.059-0.163-0.059-0.221,0l-0.404,0.403
		c-0.061,0.062-0.061,0.16,0,0.221l2.83,2.83l-2.83,2.83c-0.061,0.061-0.061,0.16,0,0.221l0.404,0.404
		c0.029,0.028,0.069,0.045,0.11,0.045s0.081-0.017,0.11-0.045l2.83-2.83l2.83,2.83c0.029,0.028,0.069,0.045,0.11,0.045
		s0.081-0.017,0.11-0.045l0.404-0.404c0.061-0.061,0.061-0.16,0-0.221L48.089,47.463z"/>
</g>
</svg>
