<?xml version="1.0" encoding="UTF-8"?>
<svg width="24px" height="24px" viewBox="0 0 24 24" version="1.1" xmlns="http://www.w3.org/2000/svg" xmlns:xlink="http://www.w3.org/1999/xlink">
    <!-- Generator: Sketch 52.4 (67378) - http://www.bohemiancoding.com/sketch -->
    <title>Artboard</title>
    <desc>Created with Sketch.</desc>
    <g id="Artboard" stroke="none" stroke-width="1" fill="none" fill-rule="evenodd">
        <g id="disco-ball-2" transform="translate(-0.050000, 0.150000)">
            <g id="disco-ball" transform="translate(0.650000, 0.450000)">
                <path d="M21.097522,11.3731455 L21.0975209,11.3721042 C21.0975209,6.48124646 17.2567483,2.36661742 12.3025522,1.87489715 L10.8318293,1.87489715 L10.4618914,1.87314144 C5.17648568,2.31724264 1.21751499,6.78357534 1.52379081,11.9446982 C1.83012955,17.1068811 6.29263318,21.0981668 11.5962782,20.9429173 C16.8993925,20.7876833 21.1082891,16.5433905 21.097522,11.3731455 Z" id="Path" stroke="currentColor"></path>
                <path d="M4.69363671,8.23894427 L6.70271547,8.23894427 C6.54410399,8.95896862 6.438363,9.73042329 6.38549251,10.5533083 L4.00632029,10.5533083 C4.11206128,9.73042329 4.32354325,8.95896862 4.69363671,8.23894427 Z M4.69363671,14.5648725 C4.32354325,13.8448482 4.11206128,13.0733935 4.00632029,12.2505085 L6.38549251,12.2505085 C6.438363,13.0733935 6.54410399,13.8448482 6.70271547,14.5648725 L4.69363671,14.5648725 Z M5.80391708,16.2620728 L7.17854991,16.2620728 C7.39003189,16.8792365 7.65438436,17.4964003 7.97160732,18.0621337 C7.12567942,17.5992609 6.38549251,16.9820971 5.80391708,16.2620728 Z M7.17854991,6.49031369 L5.80391708,6.49031369 C6.38549251,5.77028933 7.12567942,5.1531256 7.97160732,4.6902528 C7.65438436,5.25598622 7.39003189,5.87314996 7.17854991,6.49031369 Z M10.4565205,18.8335883 C9.55772213,18.3192852 8.92327621,17.2392487 8.50031226,16.2620728 L10.4565205,16.2620728 L10.4565205,18.8335883 Z M10.4565205,14.5648725 L7.97160732,14.5648725 C7.81299584,13.8448482 7.70725485,13.0733935 7.65438436,12.2505085 L10.4565205,12.2505085 L10.4565205,14.5648725 Z M10.4565205,10.5533083 L7.65438436,10.5533083 C7.70725485,9.73042329 7.81299584,8.95896862 7.97160732,8.23894427 L10.4565205,8.23894427 L10.4565205,10.5533083 Z M10.615132,6.64460462 L8.28883028,6.64460462 L8.39457127,6.43888338 C8.87040571,5.25598622 9.55772213,4.27881031 10.3507795,3.81593751 L10.615132,3.66164658 L10.615132,6.64460462 Z M16.9067208,6.49031369 L15.5320879,6.49031369 C15.320606,5.87314996 15.0562535,5.25598622 14.7390305,4.6902528 C15.5320879,5.1531256 16.2722748,5.77028933 16.9067208,6.49031369 Z M12.2541173,3.97022845 C13.1529157,4.43310125 13.7873616,5.56456809 14.1574551,6.49031369 L12.2541173,6.49031369 L12.2541173,3.97022845 Z M12.2541173,18.8335883 L12.2541173,16.2620728 L14.1574551,16.2620728 C13.7873616,17.2392487 13.1529157,18.3192852 12.2541173,18.8335883 Z M14.68616,14.5648725 L12.2541173,14.5648725 L12.2541173,12.2505085 L15.003383,12.2505085 C15.003383,13.0733935 14.897642,13.8448482 14.68616,14.5648725 Z M12.2541173,10.5533083 L12.2541173,8.23894427 L14.68616,8.23894427 C14.897642,8.95896862 15.003383,9.73042329 15.0562535,10.5533083 L12.2541173,10.5533083 Z M14.7390305,18.0621337 C15.0562535,17.4964003 15.320606,16.8792365 15.5320879,16.2620728 L16.9067208,16.2620728 C16.2722748,16.9820971 15.5320879,17.5992609 14.7390305,18.0621337 Z M18.0170011,14.5648725 L16.0079224,14.5648725 L16.2722748,12.2505085 L18.6514471,12.2505085 C18.5457061,13.0733935 18.3342241,13.8448482 18.0170011,14.5648725 Z M16.2722748,10.5533083 C16.2194043,9.73042329 16.1665339,8.95896862 16.0079224,8.23894427 L18.0170011,8.23894427 C18.3342241,8.95896862 18.5457061,9.73042329 18.6514471,10.5533083 L16.2722748,10.5533083 Z" id="Shape" fill="currentColor" fill-rule="nonzero"></path>
                <path d="M21.8883769,20.3699228 L21.2010605,19.1355953 L20.4608736,20.3699228 L19.1919818,21.0899471 L20.4608736,21.7585412 L21.2010605,23.044299 L21.8883769,21.7585412 L23.1572688,21.0899471 L21.8883769,20.3699228 Z M3.2248283,0.192 L1.79732497,0.603442488 L0.422692133,0.192 L0.845656083,1.5806184 L0.422692133,2.9692368 L1.79732497,2.55779431 L3.2248283,2.9692368 L2.80186435,1.5806184 L3.2248283,0.192 Z M3.63312069,20.1642015 L3.10441575,19.1355953 L2.52284032,20.1642015 L1.46543045,20.729935 L2.52284032,21.2442381 L3.10441575,22.2728443 L3.63312069,21.2442381 L4.69053057,20.729935 L3.63312069,20.1642015 Z M21.5831159,2.27302818 L21.0015405,1.24442196 L20.4728356,2.27302818 L19.4154257,2.8387616 L20.4728356,3.40449503 L21.0015405,4.43310125 L21.5831159,3.40449503 L22.6405258,2.8387616 L21.5831159,2.27302818 Z" id="Shape" fill="currentColor" fill-rule="nonzero"></path>
            </g>
        </g>
    </g>
</svg>
