<svg width="22" height="22" viewBox="0 0 22 22" fill="none" xmlns="http://www.w3.org/2000/svg">
<path d="M16.9955 10.79L14.3705 8.29C14.1728 8.1017 13.9046 7.99591 13.625 7.99591C13.3454 7.99591 13.0772 8.1017 12.8795 8.29C12.6818 8.4783 12.5707 8.7337 12.5707 9C12.5707 9.2663 12.6818 9.5217 12.8795 9.71L13.7195 10.5H8.2805L9.1205 9.71C9.31822 9.5217 9.4293 9.2663 9.4293 9C9.4293 8.7337 9.31822 8.4783 9.1205 8.29C8.92278 8.1017 8.65462 7.99591 8.375 7.99591C8.09538 7.99591 7.82722 8.1017 7.6295 8.29L5.0045 10.79C4.90891 10.8851 4.83397 10.9972 4.784 11.12C4.67898 11.3635 4.67898 11.6365 4.784 11.88C4.83397 12.0028 4.90891 12.1149 5.0045 12.21L7.6295 14.71C7.72711 14.8037 7.84324 14.8781 7.97119 14.9289C8.09915 14.9797 8.23639 15.0058 8.375 15.0058C8.51361 15.0058 8.65085 14.9797 8.77881 14.9289C8.90676 14.8781 9.02289 14.8037 9.1205 14.71C9.21891 14.617 9.29703 14.5064 9.35034 14.3846C9.40364 14.2627 9.43109 14.132 9.43109 14C9.43109 13.868 9.40364 13.7373 9.35034 13.6154C9.29703 13.4936 9.21891 13.383 9.1205 13.29L8.2805 12.5H13.7195L12.8795 13.29C12.7811 13.383 12.703 13.4936 12.6497 13.6154C12.5964 13.7373 12.5689 13.868 12.5689 14C12.5689 14.132 12.5964 14.2627 12.6497 14.3846C12.703 14.5064 12.7811 14.617 12.8795 14.71C12.9771 14.8037 13.0932 14.8781 13.2212 14.9289C13.3491 14.9797 13.4864 15.0058 13.625 15.0058C13.7636 15.0058 13.9009 14.9797 14.0288 14.9289C14.1568 14.8781 14.2729 14.8037 14.3705 14.71L16.9955 12.21C17.0911 12.1149 17.166 12.0028 17.216 11.88C17.321 11.6365 17.321 11.3635 17.216 11.12C17.166 10.9972 17.0911 10.8851 16.9955 10.79V10.79ZM1.55 5.5C1.27152 5.5 1.00445 5.60536 0.807538 5.79289C0.610625 5.98043 0.5 6.23478 0.5 6.5V16.5C0.5 16.7652 0.610625 17.0196 0.807538 17.2071C1.00445 17.3946 1.27152 17.5 1.55 17.5C1.82848 17.5 2.09555 17.3946 2.29246 17.2071C2.48938 17.0196 2.6 16.7652 2.6 16.5V6.5C2.6 6.23478 2.48938 5.98043 2.29246 5.79289C2.09555 5.60536 1.82848 5.5 1.55 5.5ZM20.45 5.5C20.1715 5.5 19.9044 5.60536 19.7075 5.79289C19.5106 5.98043 19.4 6.23478 19.4 6.5V16.5C19.4 16.7652 19.5106 17.0196 19.7075 17.2071C19.9044 17.3946 20.1715 17.5 20.45 17.5C20.7285 17.5 20.9955 17.3946 21.1925 17.2071C21.3894 17.0196 21.5 16.7652 21.5 16.5V6.5C21.5 6.23478 21.3894 5.98043 21.1925 5.79289C20.9955 5.60536 20.7285 5.5 20.45 5.5Z" fill="currentColor" fill-rule="nonzero"/>
</svg>
