<!-- Generated by IcoMoon.io -->
<svg version="1.1" xmlns="http://www.w3.org/2000/svg" width="24" height="24" viewBox="0 0 24 24">
<title>help_outline</title>
<path d="M12 6c2.203 0 3.984 1.781 3.984 3.984 0 2.484-3 2.766-3 5.016h-1.969c0-3.234 3-3 3-5.016 0-1.078-0.938-1.969-2.016-1.969s-2.016 0.891-2.016 1.969h-1.969c0-2.203 1.781-3.984 3.984-3.984zM12 20.016c4.406 0 8.016-3.609 8.016-8.016s-3.609-8.016-8.016-8.016-8.016 3.609-8.016 8.016 3.609 8.016 8.016 8.016zM12 2.016c5.531 0 9.984 4.453 9.984 9.984s-4.453 9.984-9.984 9.984-9.984-4.453-9.984-9.984 4.453-9.984 9.984-9.984zM11.016 18v-2.016h1.969v2.016h-1.969z"></path>
</svg>
