<!-- Generated by IcoMoon.io -->
<svg version="1.1" xmlns="http://www.w3.org/2000/svg" width="24" height="24" viewBox="0 0 24 24">
<title>laptop_mac</title>
<path d="M12 18.984c0.563 0 0.984-0.422 0.984-0.984s-0.422-0.984-0.984-0.984-0.984 0.422-0.984 0.984 0.422 0.984 0.984 0.984zM3.984 5.016v10.969h16.031v-10.969h-16.031zM20.016 18h3.984c0 1.078-0.938 2.016-2.016 2.016h-19.969c-1.078 0-2.016-0.938-2.016-2.016h3.984c-1.078 0-1.969-0.938-1.969-2.016v-10.969c0-1.078 0.891-2.016 1.969-2.016h16.031c1.078 0 1.969 0.938 1.969 2.016v10.969c0 1.078-0.891 2.016-1.969 2.016z"></path>
</svg>
