<?xml version="1.0" encoding="UTF-8"?>
<svg width="26px" height="26px" viewBox="0 0 26 26" version="1.1" xmlns="http://www.w3.org/2000/svg" xmlns:xlink="http://www.w3.org/1999/xlink">
    <!-- Generator: Sketch 52.4 (67378) - http://www.bohemiancoding.com/sketch -->
    <title>casino</title>
    <desc>Created with Sketch.</desc>
    <g id="Page-1" stroke="none" stroke-width="1" fill="none" fill-rule="evenodd">
        <g id="casino" transform="translate(0.000000, 1.000000)" fill-rule="nonzero" stroke="currentColor" stroke-width="2">
            <path d="M18.9993333,7.99955558 C20.1246041,7.99955558 20.9992222,7.1249375 20.9992222,5.99966669 C20.9992222,4.87439587 20.1246041,3.99977779 18.9993333,3.99977779 C17.8740625,3.99977779 16.9994444,4.87439587 16.9994444,5.99966669 C16.9994444,7.1249375 17.8740625,7.99955558 18.9993333,7.99955558 Z M18.9993333,19.998889 C20.1246041,19.998889 20.9992222,19.1242709 20.9992222,17.9990001 C20.9992222,16.8737292 20.1246041,15.9991112 18.9993333,15.9991112 C17.8740625,15.9991112 16.9994444,16.8737292 16.9994444,17.9990001 C16.9994444,19.1242709 17.8740625,19.998889 18.9993333,19.998889 Z M12.9996666,13.9992223 C14.1249374,13.9992223 14.9995555,13.1246042 14.9995555,11.9993334 C14.9995555,10.8740626 14.1249374,9.99944448 12.9996666,9.99944448 C11.8743958,9.99944448 10.9997777,10.8740626 10.9997777,11.9993334 C10.9997777,13.1246042 11.8743958,13.9992223 12.9996666,13.9992223 Z M6.99999994,7.99955558 C8.12527076,7.99955558 8.99988884,7.1249375 8.99988884,5.99966669 C8.99988884,4.87439587 8.12527076,3.99977779 6.99999994,3.99977779 C5.87472913,3.99977779 5.00011105,4.87439587 5.00011105,5.99966669 C5.00011105,7.1249375 5.87472913,7.99955558 6.99999994,7.99955558 Z M6.99999994,19.998889 C8.12527076,19.998889 8.99988884,19.1242709 8.99988884,17.9990001 C8.99988884,16.8737292 8.12527076,15.9991112 6.99999994,15.9991112 C5.87472913,15.9991112 5.00011105,16.8737292 5.00011105,17.9990001 C5.00011105,19.1242709 5.87472913,19.998889 6.99999994,19.998889 Z M22.3111493,0 C23.7484028,0 24.999,1.25059719 24.999,2.68785067 L24.999,21.3121493 C24.999,22.7494028 23.7484028,24 22.3111493,24 L3.68685067,24 C2.24959719,24 0.999,22.7494028 0.999,21.3121493 L0.999,2.68785067 C0.999,1.25059719 2.24959719,0 3.68685067,0 L22.3111493,0 Z" id="Shape"></path>
        </g>
    </g>
</svg>