<?xml version="1.0" encoding="utf-8"?>
<!-- Generated by IcoMoon.io -->
<!DOCTYPE svg PUBLIC "-//W3C//DTD SVG 1.1//EN" "http://www.w3.org/Graphics/SVG/1.1/DTD/svg11.dtd">
<svg version="1.1" xmlns="http://www.w3.org/2000/svg" xmlns:xlink="http://www.w3.org/1999/xlink" width="15" height="16" viewBox="0 0 15 16" id="search">
<path d="M15 13l-3.893-3.893c0.556-0.907 0.893-1.964 0.893-3.107 0-3.313-2.688-6-6-6s-6 2.687-6 6c0 3.313 2.687 6 6 6 1.143 0 2.2-0.337 3.107-0.891l3.893 3.891c0.273 0.273 0.727 0.271 1 0l1-1c0.273-0.273 0.273-0.727 0-1zM6 10c-2.209 0-4-1.791-4-4s1.791-4 4-4 4 1.791 4 4-1.791 4-4 4z"></path>
</svg>
