<?xml version="1.0" encoding="UTF-8"?>
<!DOCTYPE svg PUBLIC "-//W3C//DTD SVG 1.1//EN" "http://www.w3.org/Graphics/SVG/1.1/DTD/svg11.dtd">
<svg version="1.1" xmlns="http://www.w3.org/2000/svg" xmlns:xlink="http://www.w3.org/1999/xlink" width="30" height="30"  xml:space="preserve">
    <g id="group">
        <path id="rectangle" stroke="none" fill="rgb(0, 0, 0)" d="M 0,29 L 30,29 27.39,6.39 2.61,6.39 0,29 Z M 0,29" />
        <path id="bezier" stroke="none" fill="rgb(0, 0, 0)" d="M 9.64,6.44 C 9.73,5.83 10.44,4.37 10.94,3.49 11.79,1.97 13.14,1.02 14.99,1 16.87,0.98 18.23,1.95 19.08,3.5 19.57,4.38 20.28,5.83 20.36,6.44 L 18.21,6.44 C 18.2,6.36 17.58,4.84 17.38,4.48 16.85,3.51 16.1,2.98 15.01,2.99 13.92,3 13.17,3.54 12.63,4.49 12.43,4.85 11.8,6.36 11.79,6.44 L 9.64,6.44 Z M 9.64,6.44" />
    </g>
</svg>
