<?xml version="1.0" encoding="utf-8"?>
<!-- Generator: Adobe Illustrator 19.0.1, SVG Export Plug-In . SVG Version: 6.00 Build 0)  -->
<svg version="1.1" id="Ebene_1" xmlns="http://www.w3.org/2000/svg" xmlns:xlink="http://www.w3.org/1999/xlink" x="0px" y="0px"
	 viewBox="0 0 375.7 34.7" style="enable-background:new 0 0 375.7 34.7;" xml:space="preserve">
<g>
	<path d="M5.5,4.8h3.5v10.6h13.2V4.8h3.5v25.5h-3.5V18.6H8.9v11.7H5.5V4.8z"/>
	<path d="M48.2,30.9c-1.9,0-3.7-0.3-5.4-1c-1.6-0.7-3-1.6-4.2-2.8c-1.2-1.2-2.1-2.6-2.7-4.2c-0.7-1.6-1-3.4-1-5.3
		c0-1.9,0.3-3.7,1-5.3c0.7-1.6,1.6-3,2.7-4.2c1.2-1.2,2.6-2.1,4.2-2.8c1.6-0.7,3.4-1,5.4-1c1.9,0,3.7,0.3,5.4,1
		c1.6,0.7,3,1.6,4.2,2.8c1.2,1.2,2.1,2.6,2.7,4.2c0.7,1.6,1,3.4,1,5.3c0,1.9-0.3,3.7-1,5.3c-0.7,1.6-1.6,3-2.7,4.2
		c-1.2,1.2-2.6,2.1-4.2,2.8C51.9,30.6,50.1,30.9,48.2,30.9z M48.2,27.7c1.5,0,2.8-0.3,4-0.8c1.2-0.5,2.2-1.3,3-2.2
		c0.8-0.9,1.5-2,1.9-3.2c0.5-1.2,0.7-2.5,0.7-3.9c0-1.4-0.2-2.7-0.7-3.9c-0.5-1.2-1.1-2.3-1.9-3.2c-0.8-0.9-1.8-1.6-3-2.2
		c-1.2-0.5-2.5-0.8-4-0.8s-2.8,0.3-4,0.8c-1.2,0.5-2.2,1.3-3,2.2c-0.8,0.9-1.5,2-1.9,3.2s-0.7,2.6-0.7,3.9c0,1.4,0.2,2.7,0.7,3.9
		c0.5,1.2,1.1,2.3,1.9,3.2c0.8,0.9,1.8,1.6,3,2.2C45.4,27.4,46.7,27.7,48.2,27.7z"/>
	<path d="M70.8,4.8h9c1.6,0,3,0.2,4,0.7c1.1,0.4,1.9,1,2.5,1.7c0.6,0.7,1,1.5,1.3,2.3s0.4,1.7,0.4,2.5c0,0.8-0.1,1.6-0.4,2.4
		c-0.3,0.8-0.7,1.4-1.2,2.1c-0.5,0.6-1.2,1.1-2,1.5s-1.7,0.7-2.6,0.8l7.2,11.6h-4.3L78.2,19h-3.9v11.2h-3.5V4.8z M74.3,16h4.5
		c0.7,0,1.3-0.1,2-0.2s1.2-0.3,1.8-0.6c0.5-0.3,0.9-0.7,1.2-1.2c0.3-0.5,0.5-1.2,0.5-2.1c0-0.9-0.2-1.6-0.5-2.1
		c-0.3-0.5-0.7-1-1.2-1.2c-0.5-0.3-1.1-0.5-1.8-0.6c-0.7-0.1-1.3-0.2-2-0.2h-4.5V16z"/>
	<path d="M98.2,4.8h3.5v25.5h-3.5V4.8z"/>
	<path d="M111.5,27L126,8H112V4.8h18.4V8l-14.4,19h14.7v3.2h-19V27z"/>
	<path d="M140.4,4.8h4.5l14,21h0.1v-21h3.5v25.5h-4.4l-14.2-21h-0.1v21h-3.5V4.8z"/>
	<path d="M190.6,24.9c0.6,0.9,1.4,1.6,2.4,2.1c1,0.4,2,0.7,3,0.7c0.6,0,1.2-0.1,1.8-0.3c0.6-0.2,1.1-0.5,1.6-0.8
		c0.5-0.4,0.9-0.8,1.2-1.3s0.5-1.1,0.5-1.8c0-1-0.3-1.7-0.9-2.2c-0.6-0.5-1.4-0.9-2.3-1.3c-0.9-0.3-1.9-0.7-3-1s-2.1-0.8-3-1.3
		c-0.9-0.6-1.7-1.3-2.3-2.3c-0.6-1-0.9-2.3-0.9-3.9c0-0.7,0.2-1.5,0.5-2.4c0.3-0.8,0.8-1.6,1.5-2.3c0.7-0.7,1.6-1.3,2.7-1.7
		c1.1-0.5,2.4-0.7,3.9-0.7c1.4,0,2.7,0.2,4,0.6c1.3,0.4,2.4,1.2,3.3,2.3l-2.8,2.6c-0.4-0.7-1-1.2-1.8-1.6c-0.8-0.4-1.7-0.6-2.7-0.6
		c-1,0-1.8,0.1-2.4,0.4c-0.6,0.3-1.1,0.6-1.5,1c-0.4,0.4-0.7,0.8-0.8,1.3s-0.2,0.9-0.2,1.3c0,1.1,0.3,1.9,0.9,2.5s1.4,1,2.3,1.4
		c0.9,0.4,1.9,0.7,3,1c1.1,0.3,2.1,0.7,3,1.2s1.7,1.2,2.3,2.1c0.6,0.9,0.9,2.1,0.9,3.6c0,1.2-0.2,2.3-0.7,3.3
		c-0.5,1-1.1,1.8-1.9,2.5s-1.7,1.2-2.8,1.5c-1.1,0.4-2.2,0.5-3.5,0.5c-1.6,0-3.2-0.3-4.6-0.9s-2.6-1.5-3.5-2.7L190.6,24.9z"/>
	<path d="M220.6,8h-8.2V4.8h19.9V8H224v22.2h-3.5V8z"/>
	<path d="M244.3,4.8v15.6c0,0.8,0.1,1.6,0.3,2.5c0.2,0.9,0.6,1.6,1.1,2.4c0.5,0.7,1.2,1.3,2,1.8c0.8,0.5,1.8,0.7,3,0.7
		c1.2,0,2.2-0.2,3-0.7c0.8-0.5,1.5-1,2-1.8c0.5-0.7,0.9-1.5,1.1-2.4c0.2-0.9,0.3-1.7,0.3-2.5V4.8h3.5V21c0,1.5-0.3,2.8-0.8,4.1
		c-0.5,1.2-1.2,2.3-2.1,3.2c-0.9,0.9-1.9,1.6-3.1,2.1s-2.5,0.7-3.9,0.7c-1.4,0-2.7-0.2-3.9-0.7c-1.2-0.5-2.2-1.2-3.1-2.1
		c-0.9-0.9-1.6-1.9-2.1-3.2c-0.5-1.2-0.8-2.6-0.8-4.1V4.8H244.3z"/>
	<path d="M271.5,4.8h8.9c1.8,0,3.4,0.2,4.7,0.6c1.4,0.4,2.5,1,3.5,1.6s1.8,1.5,2.5,2.4c0.7,0.9,1.2,1.8,1.6,2.7
		c0.4,0.9,0.7,1.9,0.8,2.8c0.2,0.9,0.2,1.8,0.2,2.6c0,1.6-0.3,3.2-0.9,4.7c-0.6,1.5-1.5,2.9-2.7,4.1c-1.2,1.2-2.6,2.1-4.4,2.9
		s-3.8,1.1-6,1.1h-8.3V4.8z M274.9,27h4.4c1.5,0,2.9-0.2,4.2-0.6c1.3-0.4,2.5-1,3.4-1.8c1-0.8,1.8-1.8,2.3-3s0.9-2.6,0.9-4.2
		c0-0.8-0.1-1.8-0.4-2.9c-0.3-1.1-0.8-2.1-1.5-3.1c-0.7-1-1.7-1.8-3-2.5c-1.3-0.7-3-1-5-1h-5.2V27z"/>
	<path d="M304.1,4.8h3.5v25.5h-3.5V4.8z"/>
	<path d="M331.2,30.9c-1.9,0-3.7-0.3-5.4-1c-1.6-0.7-3-1.6-4.2-2.8c-1.2-1.2-2.1-2.6-2.7-4.2c-0.7-1.6-1-3.4-1-5.3
		c0-1.9,0.3-3.7,1-5.3c0.7-1.6,1.6-3,2.7-4.2c1.2-1.2,2.6-2.1,4.2-2.8c1.6-0.7,3.4-1,5.4-1s3.7,0.3,5.4,1c1.6,0.7,3,1.6,4.2,2.8
		c1.2,1.2,2.1,2.6,2.7,4.2c0.7,1.6,1,3.4,1,5.3c0,1.9-0.3,3.7-1,5.3c-0.7,1.6-1.6,3-2.7,4.2c-1.2,1.2-2.6,2.1-4.2,2.8
		C334.9,30.6,333.1,30.9,331.2,30.9z M331.2,27.7c1.5,0,2.8-0.3,4-0.8c1.2-0.5,2.2-1.3,3-2.2c0.8-0.9,1.5-2,1.9-3.2
		c0.5-1.2,0.7-2.5,0.7-3.9c0-1.4-0.2-2.7-0.7-3.9c-0.5-1.2-1.1-2.3-1.9-3.2c-0.8-0.9-1.8-1.6-3-2.2c-1.2-0.5-2.5-0.8-4-0.8
		s-2.8,0.3-4,0.8c-1.2,0.5-2.2,1.3-3,2.2c-0.8,0.9-1.5,2-1.9,3.2s-0.7,2.6-0.7,3.9c0,1.4,0.2,2.7,0.7,3.9c0.5,1.2,1.1,2.3,1.9,3.2
		c0.8,0.9,1.8,1.6,3,2.2C328.4,27.4,329.7,27.7,331.2,27.7z"/>
	<path d="M355.6,24.9c0.6,0.9,1.4,1.6,2.4,2.1s2,0.7,3,0.7c0.6,0,1.2-0.1,1.8-0.3c0.6-0.2,1.1-0.5,1.6-0.8s0.9-0.8,1.2-1.3
		s0.5-1.1,0.5-1.8c0-1-0.3-1.7-0.9-2.2s-1.4-0.9-2.3-1.3c-0.9-0.3-1.9-0.7-3-1s-2.1-0.8-3-1.3s-1.7-1.3-2.3-2.3
		c-0.6-1-0.9-2.3-0.9-3.9c0-0.7,0.2-1.5,0.5-2.4c0.3-0.8,0.8-1.6,1.5-2.3c0.7-0.7,1.6-1.3,2.7-1.7c1.1-0.5,2.4-0.7,3.9-0.7
		c1.4,0,2.7,0.2,4,0.6c1.3,0.4,2.4,1.2,3.3,2.3l-2.8,2.6c-0.4-0.7-1-1.2-1.8-1.6s-1.7-0.6-2.7-0.6c-1,0-1.8,0.1-2.4,0.4
		c-0.6,0.3-1.1,0.6-1.5,1c-0.4,0.4-0.7,0.8-0.8,1.3s-0.2,0.9-0.2,1.3c0,1.1,0.3,1.9,0.9,2.5s1.4,1,2.3,1.4c0.9,0.4,1.9,0.7,3,1
		c1.1,0.3,2.1,0.7,3,1.2c0.9,0.5,1.7,1.2,2.3,2.1c0.6,0.9,0.9,2.1,0.9,3.6c0,1.2-0.2,2.3-0.7,3.3s-1.1,1.8-1.9,2.5
		c-0.8,0.7-1.7,1.2-2.8,1.5c-1.1,0.4-2.2,0.5-3.5,0.5c-1.6,0-3.2-0.3-4.6-0.9c-1.5-0.6-2.6-1.5-3.5-2.7L355.6,24.9z"/>
</g>
</svg>
